<?xml version="1.0" encoding="UTF-8"?>
<svg xmlns="http://www.w3.org/2000/svg" version="1.1" xmlns:xlink="http://www.w3.org/1999/xlink" viewBox="0 0 499.1 215.9">
  <defs>
    <style>
      .cls-1 {
        fill: #0277bd;
      }

      .cls-2 {
        clip-path: url(#clippath-6);
      }

      .cls-3 {
        clip-path: url(#clippath-7);
      }

      .cls-4 {
        fill: #ffc107;
      }

      .cls-5 {
        clip-path: url(#clippath-4);
      }

      .cls-6 {
        fill: url(#_未命名的渐变_17);
      }

      .cls-7 {
        fill: url(#_未命名的渐变_8);
      }

      .cls-8 {
        fill: #81cd39;
      }

      .cls-9 {
        fill: #99f;
      }

      .cls-10 {
        stroke-width: .3px;
      }

      .cls-10, .cls-11, .cls-12, .cls-13, .cls-14, .cls-15, .cls-16 {
        fill: #fff;
      }

      .cls-10, .cls-17, .cls-18, .cls-14, .cls-19, .cls-20, .cls-15, .cls-21 {
        stroke: #fff;
      }

      .cls-10, .cls-22, .cls-20, .cls-15, .cls-21 {
        stroke-miterlimit: 10;
      }

      .cls-23 {
        fill: url(#_未命名的渐变_5);
      }

      .cls-24 {
        fill: #5fb832;
      }

      .cls-25 {
        fill: #336791;
      }

      .cls-26 {
        fill: #009639;
      }

      .cls-27 {
        fill: #263238;
      }

      .cls-28 {
        clip-path: url(#clippath-9);
      }

      .cls-29 {
        clip-path: url(#clippath-10);
      }

      .cls-30 {
        fill: #fca326;
      }

      .cls-31 {
        fill: #023430;
      }

      .cls-32 {
        fill: #cb3837;
      }

      .cls-33 {
        fill: #f38020;
      }

      .cls-34 {
        fill: url(#_未命名的渐变_11);
      }

      .cls-35 {
        fill: #f26636;
      }

      .cls-12, .cls-36, .cls-37 {
        fill-rule: evenodd;
      }

      .cls-38 {
        fill: #300;
      }

      .cls-39 {
        fill: #a41e11;
      }

      .cls-40 {
        clip-path: url(#clippath-11);
      }

      .cls-41 {
        fill: #2489ca;
      }

      .cls-42, .cls-17, .cls-18, .cls-22, .cls-19, .cls-20, .cls-21 {
        fill: none;
      }

      .cls-43, .cls-36 {
        fill: #242938;
      }

      .cls-13 {
        fill-opacity: .2;
      }

      .cls-44 {
        fill: #00adef;
      }

      .cls-45 {
        fill: #001e36;
      }

      .cls-46 {
        fill: #b8c4c2;
      }

      .cls-47 {
        fill: #0877b9;
      }

      .cls-17, .cls-18, .cls-19 {
        stroke-width: .9px;
      }

      .cls-17, .cls-14, .cls-19 {
        stroke-linejoin: round;
      }

      .cls-48 {
        clip-path: url(#clippath-1);
      }

      .cls-49 {
        fill: url(#_未命名的渐变_24);
      }

      .cls-50 {
        fill: url(#_未命名的渐变_9);
      }

      .cls-51 {
        fill: #f0db4f;
      }

      .cls-18 {
        stroke-linejoin: bevel;
      }

      .cls-18, .cls-19 {
        stroke-linecap: round;
      }

      .cls-52 {
        fill: url(#_未命名的渐变_15);
      }

      .cls-53 {
        fill: #634703;
      }

      .cls-54 {
        fill: #ad2115;
      }

      .cls-55 {
        clip-path: url(#clippath-5);
      }

      .cls-56 {
        fill: url(#_未命名的渐变_6);
      }

      .cls-57 {
        clip-path: url(#clippath-8);
      }

      .cls-58 {
        fill: #3c99d4;
      }

      .cls-59 {
        fill: #212121;
      }

      .cls-14, .cls-22 {
        stroke-width: .6px;
      }

      .cls-22 {
        stroke: #f47421;
      }

      .cls-60 {
        fill: url(#_未命名的渐变_7);
      }

      .cls-61 {
        fill: #1070b3;
      }

      .cls-62 {
        clip-path: url(#clippath-3);
      }

      .cls-63 {
        fill: #41b883;
      }

      .cls-64 {
        fill: #d82c20;
      }

      .cls-65 {
        fill: #e14e1d;
      }

      .cls-66 {
        fill: #6373ff;
      }

      .cls-67 {
        fill: #f47421;
      }

      .cls-68 {
        fill: #1793d1;
      }

      .cls-69 {
        fill: url(#_未命名的渐变_3);
      }

      .cls-70 {
        fill: #faae40;
      }

      .cls-71 {
        fill: #323330;
      }

      .cls-72 {
        fill: url(#_未命名的渐变_20);
      }

      .cls-20 {
        stroke-width: 1.6px;
      }

      .cls-73 {
        fill: url(#_未命名的渐变_13);
      }

      .cls-74 {
        fill: url(#_未命名的渐变);
      }

      .cls-75 {
        fill: url(#_未命名的渐变_23);
      }

      .cls-76 {
        opacity: .3;
      }

      .cls-76, .cls-16 {
        isolation: isolate;
      }

      .cls-77 {
        fill: url(#_未命名的渐变_12);
      }

      .cls-78 {
        fill: #2396ed;
      }

      .cls-15 {
        stroke-width: .2px;
      }

      .cls-21 {
        stroke-width: 1.9px;
      }

      .cls-79 {
        fill: #f03c2e;
      }

      .cls-80 {
        fill: #7a0c00;
      }

      .cls-81 {
        fill: #455a64;
      }

      .cls-37 {
        fill: #47b353;
      }

      .cls-82 {
        fill: #ebebeb;
      }

      .cls-83 {
        fill: url(#_未命名的渐变_19);
      }

      .cls-84 {
        fill: #fc6d26;
      }

      .cls-85 {
        fill: #eceff1;
      }

      .cls-86 {
        fill: #27282c;
      }

      .cls-87 {
        fill: #10aa50;
      }

      .cls-88 {
        fill: #31a8ff;
      }

      .cls-89 {
        fill: url(#_未命名的渐变_16);
      }

      .cls-90 {
        clip-path: url(#clippath-2);
      }

      .cls-91 {
        fill: url(#_未命名的渐变_22);
      }

      .cls-92 {
        fill: url(#_未命名的渐变_4);
      }

      .cls-93 {
        fill: url(#_未命名的渐变_21);
      }

      .cls-94 {
        fill: url(#_未命名的渐变_14);
      }

      .cls-95 {
        fill: url(#_未命名的渐变_18);
      }

      .cls-96 {
        fill: #00005b;
      }

      .cls-97 {
        fill: #e24329;
      }

      .cls-98 {
        fill: #5e438f;
      }

      .cls-99 {
        fill: #f58219;
      }

      .cls-100 {
        clip-path: url(#clippath);
      }

      .cls-101 {
        fill: url(#_未命名的渐变_10);
      }

      .cls-102 {
        fill: #ff9a00;
      }

      .cls-103 {
        fill: url(#_未命名的渐变_25);
      }

      .cls-104 {
        fill: #12924f;
      }

      .cls-16 {
        opacity: .1;
      }

      .cls-105 {
        fill: url(#_未命名的渐变_2);
      }
    </style>
    <clipPath id="clippath">
      <rect class="cls-42" x="112.5" width="48" height="48"/>
    </clipPath>
    <clipPath id="clippath-1">
      <rect class="cls-42" x="168.8" width="48" height="48"/>
    </clipPath>
    <clipPath id="clippath-2">
      <rect class="cls-42" x="225" width="48" height="48"/>
    </clipPath>
    <clipPath id="clippath-3">
      <rect class="cls-42" x="230.2" y="5.2" width="37.5" height="37.5"/>
    </clipPath>
    <linearGradient id="_未命名的渐变" data-name="未命名的渐变" x1="2528.1" y1="3284.6" x2="2574.4" y2="3238.2" gradientTransform="translate(-266.8 -622.7) scale(.2)" gradientUnits="userSpaceOnUse">
      <stop offset="0" stop-color="#249eff"/>
      <stop offset="1" stop-color="#2777ff"/>
    </linearGradient>
    <clipPath id="clippath-4">
      <rect class="cls-42" x="281.2" width="48" height="48"/>
    </clipPath>
    <clipPath id="clippath-5">
      <rect class="cls-42" x="288.8" y="7.7" width="32.8" height="32.8"/>
    </clipPath>
    <linearGradient id="_未命名的渐变_2" data-name="未命名的渐变 2" x1="2577" y1="3238.6" x2="2553.2" y2="3310.6" gradientTransform="translate(-210.6 -622.7) scale(.2)" gradientUnits="userSpaceOnUse">
      <stop offset="0" stop-color="#fff" stop-opacity="0"/>
      <stop offset="1" stop-color="#fff" stop-opacity=".3"/>
    </linearGradient>
    <linearGradient id="_未命名的渐变_3" data-name="未命名的渐变 3" x1="2636.1" y1="3162.4" x2="2487.6" y2="3311.9" gradientTransform="translate(-98.1 -622.7) scale(.2)" gradientUnits="userSpaceOnUse">
      <stop offset="0" stop-color="#7252aa"/>
      <stop offset="1" stop-color="#7252aa"/>
    </linearGradient>
    <linearGradient id="_未命名的渐变_4" data-name="未命名的渐变 4" x1="2576.9" y1="3240.9" x2="2716.5" y2="3397.2" gradientTransform="translate(-98.1 -622.7) scale(.2)" gradientUnits="userSpaceOnUse">
      <stop offset="0" stop-color="#ae7fe2"/>
      <stop offset="1" stop-color="#9a70d4"/>
    </linearGradient>
    <linearGradient id="_未命名的渐变_5" data-name="未命名的渐变 5" x1="2647.7" y1="3221.7" x2="2647.7" y2="3422.8" gradientTransform="translate(-98.1 -622.7) scale(.2)" gradientUnits="userSpaceOnUse">
      <stop offset="0" stop-color="#d59dff"/>
      <stop offset="1" stop-color="#c18ef1"/>
    </linearGradient>
    <linearGradient id="_未命名的渐变_6" data-name="未命名的渐变 6" x1="2538.3" y1="3247" x2="2631.1" y2="3247" gradientTransform="translate(-41.8 -622.7) scale(.2)" gradientUnits="userSpaceOnUse">
      <stop offset=".3" stop-color="#f97a12"/>
      <stop offset=".5" stop-color="#b07b58"/>
      <stop offset=".7" stop-color="#577bae"/>
      <stop offset=".9" stop-color="#1e7ce5"/>
      <stop offset="1" stop-color="#087cfa"/>
    </linearGradient>
    <linearGradient id="_未命名的渐变_7" data-name="未命名的渐变 7" x1="2634.4" y1="3250.7" x2="2787.7" y2="3335.5" gradientTransform="translate(-41.8 -622.7) scale(.2)" gradientUnits="userSpaceOnUse">
      <stop offset="0" stop-color="#f97a12"/>
      <stop offset="0" stop-color="#cb7a3e"/>
      <stop offset=".2" stop-color="#9e7b6a"/>
      <stop offset=".2" stop-color="#757b91"/>
      <stop offset=".3" stop-color="#537bb1"/>
      <stop offset=".4" stop-color="#387ccc"/>
      <stop offset=".5" stop-color="#237ce0"/>
      <stop offset=".7" stop-color="#147cef"/>
      <stop offset=".8" stop-color="#0b7cf7"/>
      <stop offset="1" stop-color="#087cfa"/>
    </linearGradient>
    <linearGradient id="_未命名的渐变_8" data-name="未命名的渐变 8" x1="2689.1" y1="3356.1" x2="2646.4" y2="3228.6" gradientTransform="translate(-41.8 -622.7) scale(.2)" gradientUnits="userSpaceOnUse">
      <stop offset="0" stop-color="#fe315d"/>
      <stop offset="0" stop-color="#cb417e"/>
      <stop offset=".2" stop-color="#9e4e9b"/>
      <stop offset=".2" stop-color="#755bb4"/>
      <stop offset=".3" stop-color="#5365ca"/>
      <stop offset=".4" stop-color="#386ddb"/>
      <stop offset=".5" stop-color="#2374e9"/>
      <stop offset=".7" stop-color="#1478f3"/>
      <stop offset=".8" stop-color="#0b7bf8"/>
      <stop offset="1" stop-color="#087cfa"/>
    </linearGradient>
    <linearGradient id="_未命名的渐变_9" data-name="未命名的渐变 9" x1="2566.6" y1="3271.4" x2="2694.7" y2="3483.1" gradientTransform="translate(-41.8 -622.7) scale(.2)" gradientUnits="userSpaceOnUse">
      <stop offset="0" stop-color="#fe315d"/>
      <stop offset="0" stop-color="#f63462"/>
      <stop offset="0" stop-color="#df3a71"/>
      <stop offset=".2" stop-color="#c24383"/>
      <stop offset=".3" stop-color="#ad4a91"/>
      <stop offset=".6" stop-color="#755bb4"/>
      <stop offset=".9" stop-color="#1d76ed"/>
      <stop offset="1" stop-color="#087cfa"/>
    </linearGradient>
    <clipPath id="clippath-6">
      <rect class="cls-42" x="6.8" y="60.4" width="37.5" height="37.5"/>
    </clipPath>
    <clipPath id="clippath-7">
      <rect class="cls-42" x="174" y="61.5" width="37.5" height="37.5"/>
    </clipPath>
    <clipPath id="clippath-8">
      <rect class="cls-42" x="286.5" y="61.5" width="37.5" height="37.5"/>
    </clipPath>
    <clipPath id="clippath-9">
      <rect class="cls-42" x="344.6" y="63.4" width="33.8" height="33.8"/>
    </clipPath>
    <linearGradient id="_未命名的渐变_10" data-name="未命名的渐变 10" x1="-155.7" y1="3760.3" x2="-121" y2="3749" gradientTransform="translate(70.6 -566.4) scale(.2)" gradientUnits="userSpaceOnUse">
      <stop offset="0" stop-color="#f69923"/>
      <stop offset=".3" stop-color="#f79a23"/>
      <stop offset=".8" stop-color="#e97826"/>
    </linearGradient>
    <linearGradient id="_未命名的渐变_11" data-name="未命名的渐变 11" x1="-87" y1="4040.4" x2="-44.4" y2="3871.4" gradientTransform="translate(70.6 -566.4) scale(.2)" gradientUnits="userSpaceOnUse">
      <stop offset=".3" stop-color="#9e2064"/>
      <stop offset=".6" stop-color="#c92037"/>
      <stop offset=".8" stop-color="#cd2335"/>
      <stop offset="1" stop-color="#e97826"/>
    </linearGradient>
    <linearGradient id="_未命名的渐变_12" data-name="未命名的渐变 12" x1="-20.3" y1="4038.7" x2="7.7" y2="3902.5" gradientTransform="translate(70.6 -566.4) scale(.2)" gradientUnits="userSpaceOnUse">
      <stop offset="0" stop-color="#282662"/>
      <stop offset="0" stop-color="#662e8d"/>
      <stop offset=".8" stop-color="#9f2064"/>
      <stop offset=".9" stop-color="#cd2032"/>
    </linearGradient>
    <linearGradient id="_未命名的渐变_13" data-name="未命名的渐变 13" x1="-100.2" y1="4029.9" x2="-38.3" y2="3879.4" gradientTransform="translate(70.6 -566.4) scale(.2)" gradientUnits="userSpaceOnUse">
      <stop offset=".3" stop-color="#9e2064"/>
      <stop offset=".6" stop-color="#c92037"/>
      <stop offset=".8" stop-color="#cd2335"/>
      <stop offset="1" stop-color="#e97826"/>
    </linearGradient>
    <linearGradient id="_未命名的渐变_14" data-name="未命名的渐变 14" x1="-110.1" y1="4012.8" x2="-60.2" y2="3950.7" gradientTransform="translate(70.6 -566.4) scale(.2)" gradientUnits="userSpaceOnUse">
      <stop offset="0" stop-color="#282662"/>
      <stop offset="0" stop-color="#662e8d"/>
      <stop offset=".8" stop-color="#9f2064"/>
      <stop offset=".9" stop-color="#cd2032"/>
    </linearGradient>
    <linearGradient id="_未命名的渐变_15" data-name="未命名的渐变 15" x1="-45.8" y1="4058.5" x2="-.3" y2="3843.1" gradientTransform="translate(70.6 -566.4) scale(.2)" gradientUnits="userSpaceOnUse">
      <stop offset=".3" stop-color="#9e2064"/>
      <stop offset=".6" stop-color="#c92037"/>
      <stop offset=".8" stop-color="#cd2335"/>
      <stop offset="1" stop-color="#e97826"/>
    </linearGradient>
    <linearGradient id="_未命名的渐变_16" data-name="未命名的渐变 16" x1="-62.7" y1="4108.8" x2="-19.8" y2="3859.5" gradientTransform="translate(70.6 -566.4) scale(.2)" gradientUnits="userSpaceOnUse">
      <stop offset=".3" stop-color="#9e2064"/>
      <stop offset=".6" stop-color="#c92037"/>
      <stop offset=".8" stop-color="#cd2335"/>
      <stop offset="1" stop-color="#e97826"/>
    </linearGradient>
    <linearGradient id="_未命名的渐变_17" data-name="未命名的渐变 17" x1="-29.1" y1="3756" x2="15.9" y2="3744" gradientTransform="translate(70.6 -566.4) scale(.2)" gradientUnits="userSpaceOnUse">
      <stop offset="0" stop-color="#f69923"/>
      <stop offset=".3" stop-color="#f79a23"/>
      <stop offset=".8" stop-color="#e97826"/>
    </linearGradient>
    <linearGradient id="_未命名的渐变_18" data-name="未命名的渐变 18" x1="-75.8" y1="4034.4" x2="15.8" y2="3866.5" gradientTransform="translate(70.6 -566.4) scale(.2)" gradientUnits="userSpaceOnUse">
      <stop offset=".3" stop-color="#9e2064"/>
      <stop offset=".6" stop-color="#c92037"/>
      <stop offset=".8" stop-color="#cd2335"/>
      <stop offset="1" stop-color="#e97826"/>
    </linearGradient>
    <linearGradient id="_未命名的渐变_19" data-name="未命名的渐变 19" x1="-62.9" y1="4021" x2="-21.6" y2="3951.5" gradientTransform="translate(70.6 -566.4) scale(.2)" gradientUnits="userSpaceOnUse">
      <stop offset="0" stop-color="#282662"/>
      <stop offset="0" stop-color="#662e8d"/>
      <stop offset=".8" stop-color="#9f2064"/>
      <stop offset=".9" stop-color="#cd2032"/>
    </linearGradient>
    <linearGradient id="_未命名的渐变_20" data-name="未命名的渐变 20" x1="-87" y1="4021.3" x2="5.9" y2="3864" gradientTransform="translate(70.6 -566.4) scale(.2)" gradientUnits="userSpaceOnUse">
      <stop offset=".3" stop-color="#9e2064"/>
      <stop offset=".6" stop-color="#c92037"/>
      <stop offset=".8" stop-color="#cd2335"/>
      <stop offset="1" stop-color="#e97826"/>
    </linearGradient>
    <linearGradient id="_未命名的渐变_21" data-name="未命名的渐变 21" x1="-97.9" y1="4014.5" x2="-46.9" y2="3938.7" gradientTransform="translate(70.6 -566.4) scale(.2)" gradientUnits="userSpaceOnUse">
      <stop offset="0" stop-color="#282662"/>
      <stop offset="0" stop-color="#662e8d"/>
      <stop offset=".8" stop-color="#9f2064"/>
      <stop offset=".9" stop-color="#cd2032"/>
    </linearGradient>
    <linearGradient id="_未命名的渐变_22" data-name="未命名的渐变 22" x1="-81.8" y1="4039.4" x2="25.3" y2="3867.7" gradientTransform="translate(70.6 -566.4) scale(.2)" gradientUnits="userSpaceOnUse">
      <stop offset=".3" stop-color="#9e2064"/>
      <stop offset=".6" stop-color="#c92037"/>
      <stop offset=".8" stop-color="#cd2335"/>
      <stop offset="1" stop-color="#e97826"/>
    </linearGradient>
    <linearGradient id="_未命名的渐变_23" data-name="未命名的渐变 23" x1="-47.3" y1="3991.6" x2="21.3" y2="3878.5" gradientTransform="translate(70.6 -566.4) scale(.2)" gradientUnits="userSpaceOnUse">
      <stop offset=".3" stop-color="#9e2064"/>
      <stop offset=".6" stop-color="#c92037"/>
      <stop offset=".8" stop-color="#cd2335"/>
      <stop offset="1" stop-color="#e97826"/>
    </linearGradient>
    <clipPath id="clippath-10">
      <rect class="cls-42" x="226.1" y="168.6" width="48" height="48"/>
    </clipPath>
    <clipPath id="clippath-11">
      <rect class="cls-42" x="230.4" y="185.1" width="39.4" height="15"/>
    </clipPath>
    <linearGradient id="_未命名的渐变_24" data-name="未命名的渐变 24" x1="23.4" y1="3704.1" x2="140.1" y2="3862.7" gradientTransform="translate(295.6 -566.4) scale(.2)" gradientUnits="userSpaceOnUse">
      <stop offset="0" stop-color="#41d1ff"/>
      <stop offset="1" stop-color="#bd34fe"/>
    </linearGradient>
    <linearGradient id="_未命名的渐变_25" data-name="未命名的渐变 25" x1="73.4" y1="3806.9" x2="94.6" y2="3951.8" gradientTransform="translate(295.6 -566.4) scale(.2)" gradientUnits="userSpaceOnUse">
      <stop offset="0" stop-color="#ffea83"/>
      <stop offset="0" stop-color="#ffdd35"/>
      <stop offset="1" stop-color="#ffa800"/>
    </linearGradient>
  </defs>
  <!-- Generator: Adobe Illustrator 28.7.1, SVG Export Plug-In . SVG Version: 1.2.0 Build 142)  -->
  <g>
    <g id="_图层_1" data-name="图层_1">
      <g id="_图层_1-2" data-name="_图层_1">
        <g>
          <rect class="cls-43" width="48" height="48" rx="11.2" ry="11.2"/>
          <path class="cls-36" d="M38.2,12.9l-11.8-7c-1.4-.8-3.2-.8-4.6,0l-11.8,7c-1.4.8-2.3,2.4-2.3,4.1v14.1c0,1.7.9,3.2,2.3,4.1l11.8,7c.7.4,1.5.6,2.3.6s1.6-.2,2.3-.6l11.8-7c1.4-.8,2.3-2.4,2.3-4.1v-14.1c0-1.7-.9-3.2-2.3-4.1Z"/>
          <path class="cls-12" d="M22.2,41.4l-11.8-7c-1.2-.7-1.9-2-1.9-3.3v-14.1c0-1.4.7-2.7,1.9-3.3l11.8-7c.6-.3,1.2-.5,1.9-.5s1.3.2,1.9.5l11.8,7c1,.6,1.6,1.6,1.8,2.7-.4-.8-1.3-1.1-2.3-.5l-11.2,6.9c-1.4.8-2.4,1.7-2.4,3.4v13.8c0,1,.4,1.7,1,1.9h-.6c-.7,0-1.3-.2-1.9-.5ZM38.2,12.9l-11.8-7c-.7-.4-1.5-.6-2.3-.6s-1.6.2-2.3.6l-11.8,7c-1.4.8-2.3,2.4-2.3,4.1v14.1c0,1.7.9,3.2,2.3,4.1l11.8,7c.7.4,1.5.6,2.3.6s1.6-.2,2.3-.6l11.8-7c1.4-.8,2.3-2.4,2.3-4.1v-14.1c0-1.7-.9-3.2-2.3-4.1Z"/>
          <path class="cls-37" d="M35.1,32.4l-2.9,1.8s0,0,0,.2v.8s0,0,0,0l3-1.8v-.9s0,0,0,0h0Z"/>
          <path class="cls-36" d="M28.8,25.9s.2,0,.2.1v1c.4-.2.8-.2,1.1-.1,0,0,.1.1,0,.2l-.2.9s0,.1-.1.2h0c-.2,0-.5-.1-1.1.2-.6.3-.8.8-.8,1.2s.2.6,1.1.6,1.6.5,1.6,1.6-.6,2.2-1.4,3v1c0,0,0,.3-.2.3l-.6.3s-.2,0-.2,0v-1c-.5.2-1,.3-1.4,0v-.2l.2-.9s0,0,.1-.2h0c.4,0,.8,0,1.3-.2.6-.3.9-.9.9-1.4s-.3-.7-1-.7-1.7-.2-1.7-1.4.5-2.1,1.4-2.8v-1c0-.1,0-.3.2-.3,0,0,.6-.4.6-.4Z"/>
        </g>
        <g>
          <rect class="cls-43" x="56.2" width="48" height="48" rx="11.2" ry="11.2"/>
          <path class="cls-85" d="M72.4,37.5l4.6,2.6h7l6.5-4.9,2.9-7.7-6.7-8.1-1.9-4.6-9.3.3v2.6c0,0-1.7,3.3-1.7,3.3l-2.8,5.4-.6,4.6,2,6.4h0Z"/>
          <path class="cls-27" d="M91.3,21.5c-1.8-2.6-3.3-4.1-4-7.3-.8-3.2.2-2.3-.4-5.1-.3-1.4-.9-2.4-1.5-3.2-.7-.8-1.5-1.2-1.9-1.3-1-.6-3.4-1.4-6.3,0-3,1.6-2.7,4.9-2.1,11.7,0,.4,0,1-.3,1.4-.4,1-1.2,1.9-1.9,2.7-.8,1.1-1.6,2.2-2.1,3.4-1.3,2.6-2.6,5.8-2.2,7,.6-.1,7.6,10.5,7.6,10.8.4,0,2.4,0,4,0,2.4,0,3.7-.2,5.6.2,0-.3,0-.7,0-1,0-.7,0-1.2.2-2,0-.6.2-1.1.3-1.8-1.1,1-3.1,2.1-5,2.4-1.7.3-4.5-.2-5.8-1.9,0,0,.3,0,.4,0,.3,0,.7-.2.8-.4.3-.6,0-1.1,0-1.4-.2-.3-1.9-1.6-2.7-2.2-.8-.7-1.2-1-1.7-1.4,0,0-.7-.7-.9-.9-.2-.2-.3-.4-.4-.6-.2-.6-.3-1.2-.2-2.1,0-1.2.6-2.2,1.1-3.3.2-.4.8-1.3.8-1.3,0,0-1.9,4.7-.9,6.1,0,0,0-1.4.6-2.9.3-1,.9-2.4,1.6-3.2.7-.8,2.4-3.7,2.5-5.4,0-.8,0-1.6,0-2.1-.4-.4,7.4-1.6,7.9-.3,0,.4,1.7,4.4,2.6,6.6.4,1,1,1.9,1.3,3,.3,1.2.6,2.9.6,4.6s0,.9,0,1.4c.2,0,4.6-4.7-.6-8.5,0,0,3.1,1.4,3.3,4.3,0,2.3-.9,4.2-1.1,4.6,0,0,2.4,1,2.5,1,.4,0,1.3-.3,1.3-.3,0-.3.4-1.2.4-1.6.8-2.6-1.1-6.7-2.9-9.2h0l-.3-.4Z"/>
          <path class="cls-85" d="M77.1,14.2c.8,0,1.5-1,1.5-2.2s-.7-2.2-1.5-2.2-1.5,1-1.5,2.2.7,2.2,1.5,2.2Z"/>
          <path class="cls-85" d="M82.1,14.4c1.1,0,1.9-1.1,1.9-2.6s-.9-2.6-1.9-2.6-1.9,1.1-1.9,2.6.9,2.6,1.9,2.6Z"/>
          <path class="cls-59" d="M77.9,12.1c0-.7-.5-1.3-.9-1.2-.4,0-.7.7-.6,1.4,0,.7.5,1.3.9,1.2.4,0,.7-.7.6-1.4Z"/>
          <path class="cls-59" d="M82,13.7c.6,0,1.1-.6,1.1-1.4s-.5-1.4-1.1-1.4-1.1.6-1.1,1.4.5,1.4,1.1,1.4Z"/>
          <path class="cls-4" d="M96.9,36.7c-.4-.2-1.2-.6-1.9-1.6-.3-.6-.2-2.1-.8-2.8-.3-.4-.8-.2-.9-.2-1,.2-3.4,1.8-4.9,0-.2-.2-.6-.6-1.1-.6s-.8.2-1,.7c-.2.5-.2.8-.2,1.9s0,1.9,0,2.7c-.2,1.9-.6,3-.6,4.1s.3,2,.8,2.3c.3.3.9.6,2.1.6s2-.4,2.8-1.2c.6-.6,1-.8,2.6-1.9,1.2-.8,3.1-1.8,3.5-2.1.2-.2.6-.3.6-1s-.4-.8-.8-.9h0Z"/>
          <path class="cls-4" d="M74.4,37c-1.1-1.8-1.2-2.1-2-3.2-.7-1.1-2.1-3.2-3-3.2s-1,.3-1.5.8c-.4.4-.9,1.4-1.7,2-.7.6-2.6.4-3,1.1-.4.7.4,1.7.4,3.3s-.6,1.1-.7,1.6c0,.6-.2.9,0,1.3.4.7,1,.9,4.8,1.7,2,.4,3.9,1.6,5.2,1.7,1.2,0,3.4,0,3.4-3,0-1.8-.9-2.2-1.9-4h0Z"/>
          <path class="cls-4" d="M76.5,16.9c-.7-.4-1.2-.9-1.2-1.6s.4-.9,1.1-1.4c0-.1,1.3-1.2,2.6-1.2s2.7.8,3.3,1c1,.2,2,.4,1.9,1.2,0,1.1-.2,1.3-1.3,1.9-.8.2-2.2,1.4-3.3,1.4s-1.1,0-1.6-.1c-.3-.1-.9-.7-1.5-1.2h0Z"/>
          <path class="cls-53" d="M76.3,16.1c.2.2.6.4.9.6.2.1.6.2.6.2h1c.6,0,1.3-.2,2.1-.7.8-.3.9-.6,1.5-.8.6-.3,1.1-.7.9-.8s-.4,0-1.2.4c-.7.4-1.2.7-1.9,1-.3.1-.8.3-1.1.3h-1c-.3,0-.6-.1-.9-.2-.2-.1-.3-.2-.4-.2-.2-.1-.7-.6-.9-.7,0,0-.2,0,0,.1.3.3.4.4.7.7h-.2Z"/>
          <path class="cls-53" d="M79.7,13.6c0,.2.3.2.4.3s.2.1.2.1c0-.1,0-.3,0-.3,0-.2-.6-.2-.6-.1h0Z"/>
          <path class="cls-53" d="M77.9,13.8c0,.1.2.2.2.1,0-.1.2-.2.3-.2.2-.1,0-.2-.2-.2-.2.1-.2.2-.3.3h0Z"/>
          <path class="cls-81" d="M88.7,33.5v.3c.2.4.8.6,1.2.6.7,0,1.3-.4,1.7-.9,0,0,0-.2.2-.3.2-.3.3-.6.4-.7,0,0,0,0,0-.2,0-.2-.4-.4-.9-.6-.3-.1-.9-.2-1.1-.2-1-.1-1.6.2-1.9.6,0,0,0,0,0,0,.2.2.3.4.3.8,0,.2,0,.3,0,.6h.1Z"/>
        </g>
        <g class="cls-100">
          <g>
            <path class="cls-43" d="M149.2,0h-25.5c-6.2,0-11.2,5-11.2,11.2v25.5c0,6.2,5,11.2,11.2,11.2h25.5c6.2,0,11.2-5,11.2-11.2V11.2c0-6.2-5-11.2-11.2-11.2Z"/>
            <path class="cls-67" d="M136.4,38.7c8.2,0,14.8-6.6,14.8-14.8s-6.6-14.8-14.8-14.8-14.8,6.6-14.8,14.8,6.6,14.8,14.8,14.8Z"/>
            <path class="cls-20" d="M136.4,31.1c4,0,7.2-3.2,7.2-7.2s-3.2-7.2-7.2-7.2-7.2,3.2-7.2,7.2,3.2,7.2,7.2,7.2Z"/>
            <path class="cls-67" d="M126.4,26.7c1.5,0,2.8-1.2,2.8-2.8s-1.2-2.8-2.8-2.8-2.8,1.2-2.8,2.8,1.2,2.8,2.8,2.8Z"/>
            <path d="M142,23.9h3.3-3.3Z"/>
            <path class="cls-22" d="M142,23.9h3.3"/>
            <path class="cls-11" d="M126.4,25.9c1.1,0,2-.9,2-2s-.9-2-2-2-2,.9-2,2,.9,2,2,2Z"/>
            <path class="cls-67" d="M139,13.8c-.8,1.3-.3,3,1,3.8,1.3.8,3,.3,3.8-1,.8-1.3.3-3-1-3.8s-3-.3-3.8,1Z"/>
            <path d="M133.6,28.7l-1.6,2.8,1.6-2.8Z"/>
            <path class="cls-22" d="M133.6,28.7l-1.6,2.8"/>
            <path class="cls-11" d="M139.7,14.2c-.5.9-.2,2.1.7,2.7.9.5,2.1.2,2.7-.7.5-.9.2-2.1-.7-2.7-.9-.5-2.1-.2-2.7.7Z"/>
            <path class="cls-67" d="M143.8,31.2c-.8-1.3-2.5-1.8-3.8-1s-1.8,2.5-1,3.8,2.5,1.8,3.8,1,1.8-2.5,1-3.8Z"/>
            <path d="M133.6,19.1l-1.6-2.8,1.6,2.8Z"/>
            <path class="cls-22" d="M133.6,19.1l-1.6-2.8"/>
            <path class="cls-11" d="M143.1,31.6c-.5-.9-1.7-1.3-2.7-.7-.9.5-1.3,1.7-.7,2.7.5.9,1.7,1.3,2.7.7.9-.5,1.3-1.7.7-2.7Z"/>
          </g>
        </g>
        <g class="cls-48">
          <g>
            <path class="cls-43" d="M205.5,0h-25.5c-6.2,0-11.2,5-11.2,11.2v25.5c0,6.2,5,11.2,11.2,11.2h25.5c6.2,0,11.2-5,11.2-11.2V11.2c0-6.2-5-11.2-11.2-11.2Z"/>
            <path class="cls-44" d="M176.2,12.3l13.3-1.8v12.8h-13.3v-11.1h0ZM189.6,24.8v12.8l-13.3-1.8v-11.1h13.3ZM191.2,10.3l17.6-2.6v15.5h-17.6c0,.1,0-12.9,0-12.9ZM208.8,24.9v15.4l-17.6-2.5v-13h17.6Z"/>
          </g>
        </g>
        <g class="cls-90">
          <g>
            <path class="cls-43" d="M261.8,0h-25.5c-6.2,0-11.2,5-11.2,11.2v25.5c0,6.2,5,11.2,11.2,11.2h25.5c6.2,0,11.2-5,11.2-11.2V11.2c0-6.2-5-11.2-11.2-11.2Z"/>
            <g class="cls-62">
              <g>
                <path class="cls-74" d="M249,37.3c7.4,0,13.3-6,13.3-13.3s-6-13.3-13.3-13.3-13.3,6-13.3,13.3,6,13.3,13.3,13.3h0Z"/>
                <path class="cls-76" d="M262.3,23.6c0,3.5-1.5,6.8-4,9.2-2.5,2.4-5.8,3.8-9.3,3.8s-6.8-1.4-9.3-3.8c-2.5-2.4-3.9-5.7-4-9.2v.3c0,3.5,1.4,6.9,3.9,9.4,2.5,2.5,5.9,3.9,9.4,3.9s3.5-.3,5.1-1,3.1-1.6,4.3-2.9c1.2-1.2,2.2-2.7,2.9-4.3.7-1.6,1-3.3,1-5.1v-.4h0Z"/>
                <path class="cls-16" d="M249,10.7c-3.5,0-6.9,1.4-9.4,3.9-2.5,2.5-3.9,5.9-3.9,9.4v.4c0-3.5,1.5-6.8,4-9.2,2.5-2.4,5.8-3.8,9.3-3.8s6.8,1.4,9.3,3.8,3.9,5.7,4,9.2v-.3c0-1.7-.3-3.5-1-5.1s-1.6-3.1-2.9-4.3-2.7-2.2-4.3-2.9c-1.6-.7-3.3-1-5.1-1h0Z"/>
                <path class="cls-76" d="M235.5,14.9c-2.2,0-3.6.2-3.6.2h0c-.1,0-.1.2,0,.2,0,0,7.8-.4,14.1,2.2.2,1,.8,2.4,1.2,3.2-.5.3-1,.7-1.4,1.2-.4.6-.8,1.3-.9,2.5-.2,2.4,1.8,4.4,4.4,4.5,2.3.1,3.9.1,5.8,1.1.9.5,1.7,1.5,2.4,2.8.6,1.3,1,2.7,1.1,4.1,0,0,.2,0,.2,0h0c0-1.1,0-2.7-.7-4.3-.5-1.3-1.4-2.6-2.8-3.3,2,.5,3.1,1.5,3.7,2.4.7,1,.8,2,.8,2,0,0,.2,0,.2,0,0,0,0-1.1-.7-2.4-.8-1.2-2.4-2.6-5.9-3.1-.9-.1-2-.2-3.1-.2h0c-2.7,0-4.1-1.5-4.3-3.1-.1-.8,0-1.6.5-2.2s1.2-1.1,2.2-1.1h0c1.7-.1,3.7.8,5.7,1.7,0,.2,0,.5.2.7.1.1.3.2.5.3.2,0,.4.2.5.2.2.1.8.5,1.2,1h.3c0-.1.2-.2.3-.3.2-.1.4-.2.4-.2v-.2h-.1s-.2,0-.4-.1c-.2,0-.4-.2-.6-.3,0,0-.2-.1-.2-.2h0v-.2h0c0-.1-.1-.2-.1-.3h0c0-.1-.1-.3-.2-.4-.1-.2-.2-.4-.3-.4h-.6s-.7-.4-.9-1c0-.1-.2,0-.2,0v.4c-.3-.2-.5-.4-.7-.9h-.2v.5c-.2-.1-.6-.4-.7-.9,0-.1-.2-.1-.2,0v.4c-.5-.2-1.7-.7-3.6-.7s-.6-.2-.9-.5c-.2-.3-.4-.6-.5-1s-.2-.8-.2-1.1v-.7h0c0-.1-2.3-1.3-6.8-1.8-1.7-.2-3.2-.3-4.5-.3h0l-.4-.4ZM240.7,17.3h-2.2c-4.1.3-8.2,1.7-8.2,1.7-.1,0,0,.2,0,.2,0,0,8.4-2.1,15.5-.9h0s.1,0,.1-.1l-.2-.6h0s-2-.4-5-.3h0ZM245.7,18.6c-.7,0-3,0-6.3,1.1-4.2,1.3-6.6,3.2-6.6,3.2-.1,0,0,.2.1.2,0,0,6.2-3.5,13.2-3.7,0,0,.1,0,.1-.1l-.2-.6h-.3ZM250.3,18.6c-.1,0-.1.1,0,.2h0c1.9.8,3.6,1.8,4.9,3.2h.3s.1-.1,0-.2c0,0-1.8-2.2-5.3-3.3h.1ZM255.8,23.2s.2.2.3.4h0s-.2-.1-.3-.2v-.3h0Z"/>
                <path class="cls-14" d="M235.5,14.6c-2.2,0-3.6.2-3.6.2,0,0,7.9-.4,14.2,2.2.2,1,.9,2.6,1.2,3.3-1,.7-2.1,1.3-2.3,3.6-.2,2.3,1.8,4.3,4.2,4.4,2.3.1,3.9.1,5.9,1.2,1.9,1,3.4,4.2,3.5,7,.2-2.1-.6-6.6-4.3-7.9,5.1.9,5.6,4.7,5.6,4.7,0,0,.4-4.4-6.5-5.4-.9-.1-2-.2-3.1-.2-5.5,0-5.7-6.4-1.6-6.7,1.7-.1,3.8.8,5.8,1.7,0,.2,0,.5.2.7s.8.4,1,.5.8.5,1.2,1c0-.2.8-.6.8-.6,0,0-.2,0-.6-.1s-.9-.6-.9-.6h0s0-.3-.2-.3c0,0-.5-.9-.6-.9h-.6s-.7-.3-.9-1.1c0,.1-.1.3,0,.6-.4-.2-.7-.4-.9-1.1-.1.4,0,.6,0,.6,0,0-.9-.2-1-1-.2.4,0,.6,0,.6,0,0-1.4-.7-3.8-.7-1.6-.1-1.9-2.9-1.8-3.4,0,0-2.3-1.2-6.7-1.7-1.7-.2-3.2-.3-4.5-.3h0l.3-.3ZM240.7,17h-2.2c-4.1.3-8.2,1.7-8.2,1.7,0,0,8.4-2.1,15.5-.9h0l-.2-.6s-2-.4-4.9-.3h0ZM245.7,18.3c-.7,0-2.9,0-6.3,1.1-4.2,1.3-6.6,3.2-6.6,3.2,0,0,6.2-3.5,13.3-3.7l-.2-.6h-.2ZM250.3,18.2c1.9.8,3.6,1.8,4.9,3.3h.3s-1.8-2.2-5.2-3.2h0ZM255.6,22.4l.4.3s.2.4.4.6c0,0-.2.3-.3.3h-.3c0-.1-.4-.3-.4-.4l.2-.7h0Z"/>
                <path class="cls-11" d="M235.5,14.6c-2.2,0-3.6.2-3.6.2,0,0,7.9-.4,14.2,2.2.2,1,.9,2.6,1.2,3.3-1,.7-2.1,1.3-2.3,3.6-.2,2.3,1.8,4.3,4.2,4.4,2.3.1,3.9.1,5.9,1.2,1.9,1,3.4,4.2,3.5,7,.2-2.1-.6-6.6-4.3-7.9,5.1.9,5.6,4.7,5.6,4.7,0,0,.4-4.4-6.5-5.4-.9-.1-2-.2-3.1-.2-5.5,0-5.7-6.4-1.6-6.7,1.7-.1,3.8.8,5.8,1.7,0,.2,0,.5.2.7s.8.4,1,.5.8.5,1.2,1c0-.2.8-.6.8-.6,0,0-.2,0-.6-.1s-.9-.6-.9-.6h0s0-.3-.2-.3c0,0-.5-.9-.6-.9h-.6s-.7-.3-.9-1.1c0,.1-.1.3,0,.6-.4-.2-.7-.4-.9-1.1-.1.4,0,.6,0,.6,0,0-.9-.2-1-1-.2.4,0,.6,0,.6,0,0-1.4-.7-3.8-.7-1.6-.1-1.9-2.9-1.8-3.4,0,0-2.3-1.2-6.7-1.7-1.7-.2-3.2-.3-4.5-.3h0l.3-.3ZM240.7,17h-2.2c-4.1.3-8.2,1.7-8.2,1.7,0,0,8.4-2.1,15.5-.9h0l-.2-.6s-2-.3-4.9-.3h0ZM245.7,18.3c-.7,0-2.9,0-6.3,1.1-4.2,1.3-6.6,3.2-6.6,3.2,0,0,6.2-3.5,13.3-3.7l-.2-.6h-.2ZM250.3,18.2c1.9.8,3.6,1.8,4.9,3.3h.3s-1.8-2.2-5.2-3.2h0ZM255.8,22.8s.2.2.3.4h0s-.2-.1-.3-.2v-.3h0Z"/>
              </g>
            </g>
          </g>
        </g>
        <g class="cls-5">
          <g>
            <path class="cls-43" d="M318,0h-25.5c-6.2,0-11.2,5-11.2,11.2v25.5c0,6.2,5,11.2,11.2,11.2h25.5c6.2,0,11.2-5,11.2-11.2V11.2c0-6.2-5-11.2-11.2-11.2Z"/>
            <g class="cls-55">
              <g>
                <path class="cls-68" d="M305.2,7.7c-1.5,3.6-2.3,5.9-4,9.4,1,1.1,2.2,2.3,4.2,3.7-2.1-.9-3.6-1.8-4.7-2.7-2.1,4.3-5.3,10.5-12,22.4,5.2-3,9.2-4.9,13-5.6-.2-.7-.2-1.4-.2-2.2v-.2c0-3.3,1.8-5.9,3.9-5.7,2.1.2,3.7,3,3.6,6.3,0,.6,0,1.2-.2,1.8,3.7.7,7.7,2.6,12.8,5.5-1-1.9-1.9-3.5-2.8-5.1-1.4-1.1-2.8-2.4-5.7-3.9,2,.5,3.4,1.1,4.5,1.8-8.8-16.3-9.5-18.5-12.5-25.5h.1Z"/>
                <path class="cls-13" d="M314.4,27.2c-7.1-9.7-8.8-17.4-9.2-19.3,3.8,8.8,3.8,8.9,9.2,19.3Z"/>
                <path class="cls-105" d="M305.2,7.8c-.2.4-.4.9-.5,1.3-.2.5-.4.9-.5,1.3-.2.4-.4.8-.5,1.3-.2.4-.3.8-.5,1.2s-.4.8-.5,1.2c-.2.4-.4.9-.6,1.3-.2.4-.4.9-.7,1.4,0,0,0,.1-.1.2,1,1.1,2.2,2.3,4.2,3.7-2.1-.9-3.6-1.8-4.7-2.7,0,.1-.1.2-.2.3,0,.2-.2.3-.2.5-.1.3-.3.6-.4.9,0,.1-.1.2-.2.3-1,1.9-2.1,4.2-3.6,7,4.2-2.3,8.6-5.7,16.8-2.8-.4-.8-.8-1.5-1.1-2.2-.4-.7-.7-1.3-1-1.9s-.6-1.2-.8-1.7c-.3-.5-.5-1-.7-1.5s-.4-1-.6-1.4c-.2-.5-.4-.9-.6-1.3-.2-.4-.4-.8-.5-1.3-.2-.4-.3-.8-.5-1.2,0-.1-.1-.3-.2-.5-.5-1.1-.9-2.2-1.5-3.5h-.3Z"/>
              </g>
            </g>
          </g>
        </g>
        <g>
          <rect class="cls-43" x="337.5" width="48" height="48" rx="11.2" ry="11.2"/>
          <path class="cls-41" d="M343.8,18.8s-.9-.6.2-1.5l2.5-2.2s.7-.7,1.5,0l22.9,17.3v8.3s0,1.3-1.7,1.2l-25.3-23h-.1Z"/>
          <path class="cls-61" d="M349.7,24.1l-5.9,5.4s-.6.5,0,1.3l2.7,2.5s.7.7,1.6,0l6.3-4.7-4.7-4.3v-.2Z"/>
          <path class="cls-47" d="M360.1,24.2l10.8-8.3V7.7s-.5-1.8-2.1-.9l-14.4,13.1,5.7,4.3Z"/>
          <path class="cls-58" d="M369.2,41.8c.6.6,1.4.4,1.4.4l8.4-4.2c1.1-.7.9-1.6.9-1.6V11.6c0-1.1-1.1-1.5-1.1-1.5l-7.3-3.5c-1.6-1-2.6.2-2.6.2,0,0,1.3-1,2,.9v32.8c0,.2,0,.4-.1.6-.2.4-.6.8-1.6.6h0Z"/>
        </g>
        <g>
          <rect class="cls-43" x="393.8" width="48" height="48" rx="11.2" ry="11.2"/>
          <g>
            <path class="cls-98" d="M405.9,37l-6.2-4.7c-.2,0-.4-.3-.5-.6-.1-.2-.2-.5-.2-.7v-14.1c0-.2,0-.5.2-.7.1-.2.3-.4.5-.6l6.2-4.7c-.2.2-.3.4-.4.6v24.8c0,.2.2.4.4.6h0Z"/>
            <path class="cls-69" d="M435.8,11.8c-.3-.2-.6-.3-.9-.3s-.4,0-.6.1c-.2,0-.4.2-.5.3h-.1c0,.1-6.6,6.5-6.6,6.5l-5.8,5.6-6.9,6.6-6.4,6.1h-.1c-.1.2-.3.4-.5.4s-.4,0-.6,0c-.3,0-.7,0-.9-.3l-6.2-4.7c.3.2.7.3,1.1.3s.8-.2,1-.5l3.5-4.1,3.4-4,5.7-6.6,10-11.6c.1-.2.3-.3.5-.4.2,0,.4,0,.7,0s.6,0,.9.3l9.4,6.3h-.1Z"/>
            <path class="cls-92" d="M435.8,36.2l-9.4,6.3c-.3.2-.7.3-1.1.2-.4,0-.7-.2-1-.5l-10-11.6-5.7-6.6-3.4-4-3.5-4.1c-.3-.3-.6-.5-1-.5s-.8,0-1.1.3l6.2-4.7c.3-.2.6-.3.9-.3s.4,0,.6.1c.2,0,.4.2.5.3h.1c0,.1,6.4,6.2,6.4,6.2l6.9,6.6,5.8,5.6,6.6,6.4h.1c.1.2.3.4.5.4s.4,0,.6,0c.3,0,.6,0,.9-.3h.1Z"/>
            <path class="cls-23" d="M436.5,13.1v21.9c0,.3,0,.5-.2.7-.1.2-.3.4-.5.6l-9.4,6.3c.2,0,.4-.3.5-.6.1-.2.2-.5.2-.7V6.8c0-.3,0-.5-.2-.7-.1-.2-.3-.4-.5-.6l9.4,6.3c.2.1.4.3.5.6.1.2.2.5.2.7Z"/>
          </g>
        </g>
        <g>
          <rect class="cls-43" x="450" width="48" height="48" rx="11.2" ry="11.2"/>
          <path class="cls-56" d="M464.7,34.5l-9.1-7.2,4.5-8.4,12.9,5-8.4,10.5h.1Z"/>
          <path class="cls-60" d="M492.8,15.3l-.7,21.7-14.4,5.8-8.7-5.6,12.7-13.2-5.6-12.2,5-6,11.7,9.4h0Z"/>
          <path class="cls-7" d="M492.8,15.3l-11.4,13.5-5.2-16.9,5-6,11.7,9.4h-.1Z"/>
          <path class="cls-50" d="M473.3,36.4l-15.1,5.5,2.4-8.5,3.2-10.4-8.6-2.9,5.4-14.8,11.8,1.4,11.6,13.2-10.7,16.4h0Z"/>
          <path d="M485.7,12.5h-23.1v23.1h23.1V12.5Z"/>
          <path class="cls-11" d="M473.4,31.3h-8.7v1.4h8.7v-1.4Z"/>
          <path class="cls-11" d="M471,17.3v-1.8h-4.8v1.8h1.4v6.1h-1.4v1.8h4.8v-1.8h-1.3v-6.1h1.3Z"/>
          <path class="cls-11" d="M475.6,25.2c-.8,0-1.4-.2-1.9-.4-.5-.3-.9-.6-1.2-1l1.3-1.5c.3.3.5.5.8.7s.6.3.9.3.7-.1,1-.4c.2-.3.3-.6.3-1.2v-6.2h2.1v6.3c0,.6,0,1.1-.2,1.5s-.4.8-.7,1.1c-.3.3-.6.5-1.1.6-.4.2-.9.3-1.4.3h.1Z"/>
        </g>
        <g>
          <rect class="cls-43" y="112" width="48" height="48" rx="11.2" ry="11.2"/>
          <path class="cls-11" d="M19.2,146.2s-1.4.9,1,1.1c2.9.4,4.5.3,7.8-.3,0,0,.9.6,2.1,1-7.3,3.1-16.6-.2-10.8-1.8h0ZM18.2,142.2s-1.6,1.2.9,1.4c3.2.3,5.7.4,10-.5,0,0,.6.6,1.5.9-8.8,2.6-18.7.2-12.4-1.9h0ZM35.5,149.3s1.1.9-1.2,1.6c-4.2,1.3-17.6,1.6-21.4,0-1.3-.6,1.2-1.4,2-1.5.8-.2,1.3-.2,1.3-.2-1.4-1-9.6,2.1-4.1,2.9,15,2.4,27.3-1.1,23.4-2.8h0ZM19.8,137.9s-6.8,1.6-2.4,2.2c1.9.2,5.6.2,9,0,2.8-.3,5.6-.8,5.6-.8,0,0-1,.4-1.7.9-7,1.8-20.3,1-16.5-.9,3.3-1.6,5.9-1.4,5.9-1.4h.1ZM32,144.7c7-3.6,3.8-7.1,1.5-6.7-.6.1-.8.3-.8.3,0,0,.2-.4.6-.5,4.4-1.6,8,4.7-1.4,7.1v-.2h.1ZM20.5,154.6c6.8.4,17.1-.3,17.3-3.4,0,0-.5,1.3-5.6,2.2-5.8,1.1-12.9.9-17.1.2,0,0,.9.8,5.3,1h0Z"/>
          <path class="cls-99" d="M27.8,117.2s3.9,3.9-3.7,9.9c-6.1,4.8-1.4,7.6,0,10.7-3.6-3.2-6.1-6-4.4-8.6,2.6-3.9,9.6-5.8,8.1-12ZM25.8,135.2c1.8,2.1-.5,3.9-.5,3.9,0,0,4.6-2.4,2.5-5.3-1.9-2.8-3.4-4.2,4.7-8.9,0,0-12.8,3.2-6.7,10.3h0Z"/>
        </g>
        <g>
          <rect class="cls-51" x="56.5" y="114" width="48" height="48" rx="11.2" ry="11.2"/>
          <path class="cls-71" d="M69.1,154.1l3.7-2.2c.7,1.3,1.4,2.3,2.9,2.3s2.4-.6,2.4-2.8v-15.3h4.5v15.4c0,4.7-2.7,6.8-6.7,6.8s-5.7-1.9-6.8-4.1"/>
          <path class="cls-71" d="M85.1,153.6l3.7-2.1c1,1.6,2.2,2.7,4.4,2.7s3.1-.9,3.1-2.2-1.2-2.1-3.3-3l-1.1-.5c-3.3-1.4-5.4-3.1-5.4-6.8s2.6-6,6.6-6,4.9,1,6.4,3.6l-3.5,2.3c-.8-1.4-1.6-1.9-2.9-1.9s-2.2.8-2.2,1.9.8,1.9,2.8,2.7l1.1.5c3.8,1.6,6,3.3,6,7.1s-3.2,6.3-7.5,6.3-6.9-2-8.2-4.6"/>
        </g>
        <g>
          <rect class="cls-65" x="113.5" y="114" width="48" height="48" rx="11.2" ry="11.2"/>
          <path class="cls-11" d="M122.5,121.1l1.6,18.1h20.8l-.7,7.8-6.7,1.8-6.7-1.8-.4-5h-6l.9,9.6,12.3,3.4,12.3-3.4,1.6-18.4h-21.8l-.5-6.1h22.9l.5-6h-30.1Z"/>
          <path class="cls-82" d="M137.5,121.1h-15l1.6,18.1h13.4v-6h-7.9l-.5-6.1h8.5v-6h-.1Z"/>
          <path class="cls-82" d="M137.5,148.8h0l-6.7-1.8-.4-5h-6l.9,9.6,12.3,3.4h0v-6.2h-.1Z"/>
        </g>
        <g>
          <rect class="cls-1" x="169.5" y="112.5" width="48" height="48" rx="11.2" ry="11.2"/>
          <path class="cls-82" d="M179.6,131.7l.5,6h13.4v-6h-13.9Z"/>
          <path class="cls-82" d="M193.5,119.6h-15l.5,6h14.5v-6Z"/>
          <path class="cls-82" d="M193.5,153.5v-6.2h0l-6.7-1.8-.4-4.8h-6l.8,9.4,12.3,3.4h0Z"/>
          <path class="cls-11" d="M200.9,137.7l-.7,7.8-6.7,1.8v6.2l12.3-3.4v-1l1.5-15.8v-1.6c.1,0,1.2-12.1,1.2-12.1h-15v6h8.4l-.5,6.1h-7.9v6h7.4Z"/>
        </g>
        <g>
          <rect class="cls-43" x="225.5" y="112.7" width="48" height="48" rx="11.2" ry="11.2"/>
          <path class="cls-11" d="M234.7,131.5h5.3c1.6,0,2.7.5,3.4,1.4s.9,2.1.7,3.6c0,.7-.3,1.4-.6,2.1-.3.7-.7,1.3-1.3,1.8-.7.7-1.4,1.1-2.1,1.3-.8.2-1.5.3-2.3.3h-2.4l-.8,3.8h-2.8l2.8-14.3h.1ZM237,133.8l-1.2,6h.5c1.3,0,2.3-.1,3.2-.4.8-.3,1.4-1.2,1.7-2.9.2-1.4,0-2.2-.7-2.4s-1.6-.3-2.6-.3h-.9"/>
          <path class="cls-11" d="M247.3,127.7h2.7l-.8,3.8h2.5c1.4,0,2.4.3,3,.8.7.5.9,1.5.6,3l-1.3,6.6h-2.8l1.3-6.3c.1-.7,0-1.1-.1-1.4-.2-.3-.7-.4-1.4-.4h-2.2l-1.6,8.1h-2.7l2.9-14.3h0Z"/>
          <path class="cls-11" d="M258.3,131.5h5.3c1.6,0,2.7.5,3.4,1.4s.9,2.1.7,3.6c0,.7-.3,1.4-.6,2.1-.3.7-.7,1.3-1.3,1.8-.7.7-1.4,1.1-2.1,1.3-.8.2-1.5.3-2.3.3h-2.4l-.8,3.8h-2.8l2.8-14.3h0ZM260.6,133.8l-1.2,6h.5c1.3,0,2.3-.1,3.2-.4.8-.3,1.4-1.2,1.7-2.9.2-1.4,0-2.2-.7-2.4s-1.6-.3-2.6-.3h-.9"/>
        </g>
        <g>
          <rect class="cls-45" x="281.2" y="112.9" width="48" height="48" rx="11.2" ry="11.2"/>
          <path class="cls-88" d="M292.1,146.3v-20.6c0,0,0-.2.2-.2h6.1c1.6,0,3,.2,4.1.6,1,.3,1.9.9,2.7,1.6.6.6,1.1,1.4,1.5,2.3.3.8.5,1.7.5,2.6,0,1.7-.4,3.1-1.2,4.3-.8,1.1-1.9,2-3.2,2.4-1.4.5-2.9.7-4.5.7s-.8,0-1,0h-.9v6.4c0,.1,0,.3-.2.3h-3.9q-.2,0-.2-.3h0ZM296.4,129.3v6.7h1.9c.8,0,1.6-.1,2.3-.4.6-.2,1.2-.6,1.6-1.1s.6-1.2.6-2.1-.1-1.2-.5-1.8c-.3-.5-.8-.9-1.4-1.1-.7-.3-1.5-.4-2.4-.4h-2.2v.2Z"/>
          <path class="cls-88" d="M319.7,134.8c-.6-.3-1.2-.5-1.9-.7-.7-.2-1.5-.3-2.2-.3s-.8,0-1.2.1c-.3,0-.5.2-.6.4s-.2.4-.2.5,0,.4.2.5c.2.2.4.4.7.5.5.2.9.5,1.4.7,1.1.4,2.1.9,3.1,1.5.7.4,1.2,1,1.6,1.7.3.6.5,1.3.5,2.1s-.3,1.9-.8,2.7c-.6.8-1.3,1.4-2.2,1.8-1,.4-2.2.6-3.6.6s-1.8,0-2.7-.3c-.7-.1-1.4-.3-2-.6-.1,0-.2-.2-.2-.4v-3.7h.2c.8.5,1.6.8,2.5,1,.8.2,1.6.3,2.4.3s1.3,0,1.7-.3c.3-.1.5-.5.5-.8s-.2-.5-.5-.8-1-.6-2-.9c-1-.4-2-.8-2.8-1.4-.6-.4-1.1-1-1.5-1.7-.3-.6-.5-1.3-.5-2s.2-1.7.7-2.4c.5-.8,1.2-1.4,2.1-1.8.9-.5,2.1-.7,3.5-.7s1.7,0,2.5.2c.6,0,1.2.2,1.7.5,0,0,.2.1.2.2v3.7h-.4l-.2-.2Z"/>
        </g>
        <g>
          <rect class="cls-38" x="337.5" y="114" width="48" height="48" rx="11.2" ry="11.2"/>
          <path class="cls-102" d="M360.7,142.6h-7.4l-1.5,4.7c0,.2-.2.3-.4.3h-3.8c-.2,0-.3-.1-.2-.4l6.4-18.5c0-.2.1-.4.2-.7,0-.4.1-.9.1-1.3,0,0,0-.2.2-.2h5.2q.2,0,.3.2l7.3,20.6c0,.2,0,.3-.2.3h-4.2c-.1,0-.3,0-.3-.2l-1.6-4.8h-.1ZM354.4,138.5h5.1c-.1-.4-.3-.9-.5-1.4s-.4-1.1-.5-1.7c-.2-.6-.4-1.2-.6-1.8s-.4-1.2-.5-1.8c-.2-.6-.3-1.1-.4-1.6h0c-.2.9-.4,1.7-.7,2.6-.3,1-.6,2-.9,3s-.6,2-.9,2.8h-.1Z"/>
          <path class="cls-102" d="M371.5,130c-.7,0-1.3-.2-1.8-.7s-.7-1.2-.7-1.8.2-1.3.7-1.8,1.1-.7,1.8-.7,1.4.2,1.8.7.7,1.1.7,1.8-.2,1.3-.7,1.8-1.1.7-1.8.7ZM369.3,147.3v-15.4c0-.2,0-.3.3-.3h4c.2,0,.3.1.3.3v15.4c0,.2,0,.3-.3.3h-3.9c-.2,0-.3-.1-.3-.3h-.1Z"/>
        </g>
        <g>
          <rect class="cls-96" x="394.2" y="114.1" width="48" height="48" rx="11.2" ry="11.2"/>
          <path class="cls-9" d="M404.3,148.3v-20.6c0,0,0-.2.2-.2h6.1c1.6,0,3,.2,4.1.6,1,.3,1.9.9,2.7,1.6.6.6,1.1,1.4,1.5,2.3.3.8.5,1.7.5,2.6,0,1.7-.4,3.1-1.2,4.3-.8,1.1-1.9,2-3.2,2.4-1.4.5-2.9.7-4.5.7s-.8,0-1,0h-.9v6.4c0,.1,0,.3-.2.3h-3.9q-.2,0-.2-.3h0ZM408.7,131.4v6.7h1.9c.8,0,1.6-.1,2.3-.4.6-.2,1.2-.6,1.6-1.1s.6-1.2.6-2.1-.1-1.2-.5-1.8c-.3-.5-.8-.9-1.4-1.1-.7-.3-1.5-.4-2.4-.4h-2.2v.2Z"/>
          <path class="cls-9" d="M422.3,132.6h3.5c.2,0,.4.1.4.3s0,.3.1.5v1.3c.6-.7,1.3-1.3,2.1-1.7.9-.5,2-.8,3-.8s.3,0,.3.2h0v4c0,.2-.1.2-.3.2-.7,0-1.5,0-2.2.2-.6.1-1.1.3-1.7.5-.4.2-.7.4-1,.7v10.2c0,.2,0,.3-.3.3h-3.9c-.2,0-.3,0-.3-.2h0v-15.7s0-.2.1-.2h0l.2.2Z"/>
        </g>
        <g>
          <rect class="cls-43" x="450.1" y="114" width="48" height="48" rx="11.2" ry="11.2"/>
          <path class="cls-21" d="M491.8,126.9h-33.4c-1,0-1.9.8-1.9,1.9v18.4c0,1,.8,1.9,1.9,1.9h33.4c1,0,1.9-.8,1.9-1.9v-18.4c0-1-.8-1.9-1.9-1.9Z"/>
          <path class="cls-11" d="M461.2,144.4v-12.8h3.8l3.8,4.7,3.8-4.7h3.8v12.8h-3.8v-7.3l-3.8,4.7-3.8-4.7v7.3h-3.8ZM484.7,144.4l-5.6-6.2h3.8v-6.6h3.8v6.6h3.8l-5.6,6.2h-.2Z"/>
        </g>
        <g>
          <rect class="cls-79" x=".5" y="55.2" width="48" height="48" rx="11.2" ry="11.2"/>
          <g class="cls-2">
            <path class="cls-11" d="M42.6,77.5l-16.4-16.4c-.2-.2-.5-.4-.8-.5s-.6-.2-.9-.2-.6,0-.9.2c-.3,0-.6.3-.8.5l-3.4,3.4,4.3,4.3c1-.4,2.2,0,3,.7.4.4.6.9.8,1.4s0,1.1,0,1.6l4.2,4.2c1-.3,2.2,0,3,.7.3.3.5.6.6.9s.2.7.2,1.1,0,.8-.2,1.1c0,.3-.4.7-.6.9-.3.3-.6.5-.9.6-.3,0-.7.2-1.1.2s-.8,0-1.1-.2c-.3,0-.7-.4-.9-.6-.8-.8-1.1-2.1-.6-3.1l-3.9-3.9v10.2c.3,0,.5.3.8.5.3.3.5.6.6.9s.2.7.2,1.1,0,.8-.2,1.1c-.1.3-.4.7-.6.9s-.6.5-.9.6-.7.2-1.1.2-.8,0-1.1-.2c-.3,0-.7-.4-.9-.6-.3-.3-.5-.6-.6-.9s-.2-.7-.2-1.1,0-.8.2-1.1c.1-.3.4-.7.6-.9.3-.3.6-.5.9-.6v-10.3c-.3,0-.7-.3-.9-.6-.4-.4-.7-.9-.8-1.5-.1-.6,0-1.1.2-1.7l-4.3-4.3-11.2,11.2c-.2.2-.4.5-.5.8s-.2.6-.2.9,0,.6.2.9c0,.3.3.6.5.8l16.4,16.4c.2.2.5.4.8.5s.6.2.9.2.6,0,.9-.2c.3,0,.6-.3.8-.5l16.3-16.3c.2-.2.4-.5.5-.8s.2-.6.2-.9,0-.6-.2-.9c0-.3-.3-.6-.5-.8"/>
          </g>
        </g>
        <g>
          <rect class="cls-43" x="56.2" y="56.2" width="48" height="48" rx="11.2" ry="11.2"/>
          <path class="cls-11" d="M80.3,61.9c-10.4,0-18.8,8.4-18.8,18.8s5.4,15.3,12.8,17.8c.9.2,1.3-.4,1.3-.9v-3.5c-5.2,1.1-6.3-2.2-6.3-2.2-.9-2.2-2.1-2.7-2.1-2.7-1.7-1.2,0-1.1,0-1.1,1.9,0,2.9,1.9,2.9,1.9,1.7,2.9,4.4,2,5.5,1.6.2-1.2.7-2,1.2-2.5-4.2-.5-8.5-2.1-8.5-9.3s.7-3.7,1.9-5c-.2-.5-.8-2.4.2-5,0,0,1.6-.5,5.2,1.9,1.5-.4,3.1-.6,4.7-.6s3.2.2,4.7.6c3.6-2.4,5.2-1.9,5.2-1.9,1,2.6.4,4.5.2,5,1.2,1.3,1.9,3,1.9,5,0,7.2-4.4,8.8-8.6,9.3.7.6,1.3,1.7,1.3,3.5v5.1c0,.6.3,1.1,1.3.9,7.4-2.5,12.8-9.5,12.8-17.8s-8.4-18.8-18.7-18.8h-.2ZM68.5,88.6s-.2,0-.3,0c0,0-.2-.2-.2-.3,0,0,.2,0,.3,0,0,0,.2.2.2.3ZM69.4,89.4h-.4c0,0,0-.3,0-.4h.4c0,0,0,.3,0,.4ZM70.1,90.5c0,0-.3,0-.4-.2s0-.4,0-.4.3,0,.4.2,0,.4,0,.5h0ZM71.1,91.7c0,0-.3,0-.5,0-.2-.2-.2-.4,0-.5s.3,0,.5,0c.2.2.2.4,0,.5ZM72.5,92.1c0,0-.3.2-.5.2s-.4-.2-.3-.4c0,0,.3-.2.5-.2s.4.2.3.4ZM74.1,92.3c0,.2-.2.3-.4.3s-.4,0-.4-.3.2-.3.4-.3.4,0,.4.3ZM75.7,92.2c0,.2,0,.3-.3.3s-.4,0-.4-.2,0-.3.3-.3.4,0,.4.2Z"/>
        </g>
        <g>
          <rect class="cls-43" x="112.5" y="56.2" width="48" height="48" rx="11.2" ry="11.2"/>
          <path class="cls-97" d="M136.5,97.5l7-21.2h-14.1l7,21.2h.1Z"/>
          <path class="cls-84" d="M136.5,97.5l-7-21.2h-9.9l16.9,21.2h0Z"/>
          <path class="cls-30" d="M119.6,76.3l-2.1,6.4c-.2.6,0,1.2.5,1.6l18.5,13.2-16.9-21.2h0Z"/>
          <path class="cls-97" d="M119.6,76.3h9.9l-4.2-12.8c-.2-.7-1.2-.7-1.4,0l-4.2,12.8h-.1Z"/>
          <path class="cls-84" d="M136.5,97.5l7-21.2h9.9l-16.9,21.2h0Z"/>
          <path class="cls-30" d="M153.4,76.3l2.1,6.4c.2.6,0,1.2-.5,1.6l-18.5,13.2,16.9-21.2h0Z"/>
          <path class="cls-97" d="M153.4,76.3h-9.9l4.2-12.8c.2-.7,1.2-.7,1.4,0l4.2,12.8h.1Z"/>
        </g>
        <g>
          <rect class="cls-43" x="168.8" y="56.2" width="48" height="48" rx="11.2" ry="11.2"/>
          <g class="cls-3">
            <g>
              <path class="cls-11" d="M183.6,88.5h24.8v-6.9l-4.7-2.7-.8-.4h-19.3v9.9h0Z"/>
              <path class="cls-33" d="M199.8,87.5c.2-.8.1-1.5-.2-2.1-.4-.5-.9-.8-1.7-.8l-13.5-.2s-.2,0-.2,0v-.2c0,0,.2-.2.3-.2l13.7-.2c1.6,0,3.4-1.4,4-3l.8-2v-.3c-.9-4-4.4-6.9-8.7-6.9s-7.2,2.5-8.4,6c-.8-.6-1.8-.9-2.8-.8-1.9.2-3.4,1.7-3.6,3.6v1.4c-1.5,0-2.9.7-3.9,1.7-1,1.1-1.6,2.5-1.6,4v.8c0,0,.1.2.3.2h25.2s0,0,.1-.2l.2-.7h0Z"/>
              <path class="cls-70" d="M204.1,78.8h-.4s-.2,0-.2.2l-.5,1.8c-.2.8-.1,1.5.2,2.1.4.5.9.8,1.7.8l2.9.2s.2,0,.2,0v.2c0,0-.2.2-.3.2l-3,.2c-1.6,0-3.4,1.4-4,3l-.2.6c0,0,0,.2.2.2h10.5c.2-.7.3-1.4.3-2.1,0-2-.8-3.8-2.2-5.2-1.4-1.4-3.3-2.2-5.2-2.2"/>
            </g>
          </g>
        </g>
        <g>
          <rect class="cls-78" x="225" y="56.2" width="48" height="48" rx="11.2" ry="11.2"/>
          <path class="cls-11" d="M251.5,79.1h3.9v-3.5h-3.9v3.5ZM246.8,79.1h3.9v-3.5h-3.9v3.5ZM242.3,79.1h3.9v-3.5h-3.9v3.5ZM237.8,79.1h3.8v-3.5h-3.8v3.5ZM233.2,79.1h3.9v-3.5h-3.9v3.5ZM237.8,74.9h3.8v-3.5h-3.8v3.5ZM242.3,74.9h3.9v-3.5h-3.9v3.5ZM246.8,74.9h3.9v-3.5h-3.9v3.5ZM246.8,70.6h3.9v-3.5h-3.9v3.5ZM267.8,77.6s-1.7-1.6-5.1-1c-.4-2.7-3.2-4.3-3.2-4.3,0,0-2.7,3.2-.7,6.8-.6.3-1.5.6-2.9.6h-25.4c-.5,1.8-.5,13.4,12.3,13.4s16-4.3,19.2-12c4.8.4,5.8-3.6,5.8-3.6h0Z"/>
        </g>
        <g>
          <rect class="cls-43" x="281.2" y="56.2" width="48" height="48" rx="11.2" ry="11.2"/>
          <g class="cls-57">
            <g>
              <path class="cls-39" d="M322.5,89c-2,1-12.4,5.3-14.6,6.5s-3.4,1.1-5.2.3c-1.7-.8-12.8-5.3-14.8-6.2-1-.5-1.5-.9-1.5-1.3v-3.8s14.4-3.1,16.7-4c2.3-.8,3.1-.9,5.1,0,2,.7,13.8,2.9,15.7,3.6v3.7c0,.4-.4.8-1.5,1.3h0Z"/>
              <path class="cls-64" d="M322.5,85.2c-2,1-12.4,5.3-14.6,6.5s-3.4,1.1-5.2.3c-1.7-.8-12.8-5.3-14.8-6.2-2-1-2-1.6,0-2.4l15.2-5.9c2.3-.8,3.1-.9,5.1,0,2,.7,12.3,4.8,14.2,5.5,1.9.7,2,1.3,0,2.3h0Z"/>
              <path class="cls-39" d="M322.5,82.8c-2,1-12.4,5.3-14.6,6.5s-3.4,1.1-5.2.3c-1.7-.8-12.8-5.3-14.8-6.2-1-.5-1.5-.9-1.5-1.3v-3.8s14.4-3.1,16.7-4c2.3-.8,3.1-.9,5.1,0s13.8,2.9,15.7,3.6v3.7c0,.4-.4.8-1.5,1.3h0Z"/>
              <path class="cls-64" d="M322.5,79c-2,1-12.4,5.3-14.6,6.5s-3.4,1.1-5.2.3c-1.7-.8-12.8-5.3-14.8-6.2-2-1-2-1.6,0-2.4l15.2-5.9c2.3-.8,3.1-.9,5.1,0,2,.7,12.3,4.8,14.2,5.5,2,.7,2,1.3,0,2.3h0Z"/>
              <path class="cls-39" d="M322.5,76.4c-2,1-12.4,5.3-14.6,6.5s-3.4,1.1-5.2.3c-1.7-.8-12.8-5.3-14.8-6.2-1-.5-1.5-.9-1.5-1.3v-3.8s14.4-3.1,16.7-4c2.3-.8,3.1-.9,5.1,0s13.8,2.9,15.7,3.6v3.7c0,.4-.4.8-1.5,1.3h0Z"/>
              <path class="cls-64" d="M322.5,72.6c-2,1-12.4,5.3-14.6,6.5s-3.4,1.1-5.2.3c-1.7-.8-12.8-5.3-14.8-6.2-2-1-2-1.6,0-2.4l15.2-5.9c2.3-.8,3.1-.9,5.1,0,2,.7,12.3,4.8,14.2,5.5,2,.7,2,1.3,0,2.3h0Z"/>
              <path class="cls-11" d="M306.2,71l-1.2-2-3.8-.3,2.8-1-.8-1.6,2.6,1,2.5-.8-.7,1.6,2.5.9-3.2.3-.7,1.8h0ZM299.9,74.9l8.7-1.3-2.6,3.8-6.1-2.5Z"/>
              <path class="cls-11" d="M297.6,73.5c2.6,0,4.6-.8,4.6-1.8s-2.1-1.8-4.6-1.8-4.6.8-4.6,1.8,2.1,1.8,4.6,1.8Z"/>
              <path class="cls-80" d="M319.1,71.4l-5.1,2v-4.1l5.1,2h0Z"/>
              <path class="cls-54" d="M314,73.5l-.6.2-5.1-2,5.7-2.3v4.1Z"/>
            </g>
          </g>
        </g>
        <g>
          <rect class="cls-43" x="337.5" y="56.2" width="48" height="48" rx="11.2" ry="11.2"/>
          <g class="cls-28">
            <path class="cls-12" d="M375.7,89.7c-1.8,0-3.3,0-4.5.6-.3,0-.9,0-.9.6.2.2.2.5.4.7.3.5.8,1.1,1.2,1.4l1.5,1c.9.5,1.9.9,2.8,1.4.5.3,1,.7,1.5,1.1.3.2.4.5.7.6h0c-.2-.3-.2-.6-.4-.8l-.7-.7c-.7-.9-1.5-1.7-2.4-2.3-.7-.5-2.3-1.2-2.6-2h0c.5,0,1.1-.3,1.6-.4.8-.2,1.5-.2,2.3-.4l1.1-.3v-.2c-.4-.4-.7-1-1.1-1.3-1.2-1-2.5-2-3.8-2.8-.7-.5-1.6-.8-2.4-1.1-.3,0-.7-.2-.9-.4-.4-.5-.6-1.2-.9-1.8l-1.9-4c-.4-.9-.7-1.8-1.2-2.6-2.4-3.9-4.9-6.2-8.9-8.5-.8-.5-1.9-.7-2.9-.9h-1.7c-.4-.3-.7-.7-1.1-.9-1.3-.8-4.7-2.6-5.6-.3-.6,1.5.9,2.9,1.4,3.7.4.5.9,1.1,1.2,1.7.2.4.2.8.4,1.2.4,1,.7,2.1,1.2,3.1.3.5.5,1,.8,1.4.2.3.5.4.6.8-.3.5-.3,1.1-.5,1.7-.8,2.6-.5,5.8.7,7.7.4.6,1.2,1.8,2.4,1.3,1-.4.8-1.7,1.1-2.9,0-.3,0-.5.2-.6h0l.9,1.9c.7,1.1,2,2.3,3,3.1.6.4,1,1.1,1.7,1.4h0c-.1-.2-.3-.3-.5-.5-.4-.4-.9-.9-1.2-1.4-1-1.3-1.8-2.7-2.6-4.2-.4-.7-.7-1.5-1-2.2-.1-.3-.1-.7-.4-.8-.3.5-.8.9-1.1,1.6-.4,1-.5,2.2-.6,3.4h0c-.7-.2-1-.9-1.3-1.6-.7-1.6-.8-4.2-.2-6.1.2-.5.8-2,.6-2.4-.1-.4-.6-.7-.8-1-.3-.4-.6-1-.8-1.5-.6-1.3-.8-2.7-1.4-4-.3-.6-.8-1.2-1.1-1.8-.4-.6-.9-1-1.3-1.8-.1-.3-.3-.7,0-.9,0-.2.1-.3.3-.3.3-.3,1.1,0,1.4.2.8.3,1.6.7,2.3,1.1.3.2.7.7,1.1.8h.5c.7.2,1.6,0,2.2.3,1.2.4,2.3,1,3.3,1.6,3,1.9,5.5,4.6,7.2,7.8.3.5.4,1,.6,1.6.5,1.1,1.1,2.3,1.6,3.4s.9,2.2,1.6,3.1c.3.5,1.7.7,2.3,1,.5.2,1.2.4,1.6.6.8.5,1.6,1,2.3,1.6.4.3,1.5.8,1.6,1.3h-.5ZM352.3,69.8c-.3,0-.6,0-.9,0h0c.2.4.5.6.7.9l.5,1.1h0c.3-.3.5-.6.5-1.2-.1-.2-.2-.3-.3-.5-.1-.2-.4-.3-.6-.5h0Z"/>
          </g>
        </g>
        <g>
          <rect class="cls-31" x="393.8" y="56.2" width="48" height="48" rx="11.2" ry="11.2"/>
          <path class="cls-87" d="M425.8,76.4c-2-8.7-6.1-11-7.1-12.7-.4-.7-.8-1.5-1.1-2.2,0,.8-.2,1.3-.8,1.8-1.3,1.2-6.9,5.8-7.4,15.7-.4,9.2,6.8,14.9,7.7,15.5.7.4,1.6,0,2.1-.3,3.5-2.4,8.2-8.8,6.7-17.8"/>
          <path class="cls-46" d="M417.9,89.6c-.2,2.3-.3,3.6-.8,4.9,0,0,.3,2.2.5,4.5h.8c.2-1.6.5-3.2.8-4.8-1-.5-1.3-2.6-1.3-4.6Z"/>
          <path class="cls-104" d="M419.2,94.2c-1-.5-1.3-2.6-1.3-4.6.2-3.3.3-6.6.2-9.9,0-1.7,0-16-.4-18.1.3.7.7,1.4,1.1,2.1,1.1,1.6,5.2,4,7.1,12.7,1.5,9-3.2,15.3-6.7,17.8h0Z"/>
        </g>
        <g>
          <rect class="cls-43" x="450" y="56.2" width="48" height="48" rx="11.2" ry="11.2"/>
          <path class="cls-25" d="M488.2,84.1c-3.8.8-4.1-.5-4.1-.5,4-6,5.7-13.6,4.3-15.4-4-5.1-10.8-2.7-10.9-2.6h0c-.8-.2-1.7-.3-2.5-.3-1.7,0-3,.5-4,1.2,0,0-12.2-5-11.7,6.3.1,2.4,3.5,18.3,7.5,13.5,1.5-1.8,2.9-3.3,2.9-3.3.7.5,1.5.7,2.4.6h0v.6c-1,1.1-.7,1.4-2.8,1.8-2.1.4-.9,1.2,0,1.4,1,.2,3.2.6,4.7-1.5v.2c.3.3.6,2.1.6,3.7s0,2.7.2,3.6c.3.9.6,2.8,3.3,2.2,2.3-.5,3.4-1.7,3.6-3.8.1-1.5.4-1.3.4-2.6l.2-.6c.2-2,0-2.7,1.4-2.4h.3c1,0,2.4,0,3.2-.5,1.7-.8,2.7-2.1,1-1.8h0v.2Z"/>
          <path class="cls-19" d="M477.4,65.4c-.4,0,6.8-2.6,10.9,2.6,1.5,1.9-.2,9.4-4.3,15.4M474,85.1c-.1,3.8,0,7.5.4,8.4s1.2,2.7,3.9,2.1c2.3-.5,3.1-1.4,3.4-3.5l.8-6.6-8.5-.5h0ZM470.8,66.3s-12.2-5-11.7,6.4c.1,2.4,3.5,18.3,7.5,13.5,1.5-1.8,2.8-3.1,2.8-3.1l1.4-16.8h0Z"/>
          <path class="cls-18" d="M484.1,83.4s.3,1.3,4.1.5c1.7-.3.7,1-1,1.8-1.4.6-4.5.8-4.6,0-.1-2.3,1.6-1.6,1.5-2.2-.1-.5-.9-1-1.4-2.3-.5-1.1-6.3-9.6,1.6-8.3.3,0-2.1-7.5-9.4-7.6-7.4,0-7.1,9.1-7.1,9.1"/>
          <path class="cls-17" d="M472,84.2c-1,1.1-.7,1.4-2.8,1.8-2.1.4-.9,1.2,0,1.4,1,.2,3.2.6,4.7-1.5.5-.6,0-1.7-.6-1.9-.3,0-.7-.3-1.2.3h-.1Z"/>
          <path class="cls-19" d="M471.9,84.1c-.1-.7.2-1.5.6-2.4.5-1.4,1.7-2.8.8-7.3-.7-3.3-5.6-.7-5.6-.2s.2,2.3,0,4.4c-.4,2.8,1.8,5.2,4.3,4.9"/>
          <path class="cls-10" d="M470.7,74.1c0,.2.3.6.7.6s.7-.3.8-.4c0-.2-.3-.3-.7-.4-.4,0-.7,0-.8.2h0Z"/>
          <path class="cls-15" d="M482.8,73.8c0,.2-.3.6-.7.6s-.7-.3-.8-.4c0-.2.3-.3.7-.4.4,0,.7,0,.8.2Z"/>
          <path class="cls-19" d="M484.2,72.7c0,1.2-.3,2-.3,3.3,0,1.9.9,4-.5,6.2"/>
        </g>
        <g>
          <rect class="cls-43" x="-.8" y="168.8" width="48" height="48" rx="11.2" ry="11.2"/>
          <path class="cls-11" d="M39.1,181.4c-1-1-2.4-1.6-3.9-1.6s-2.9.5-4,1.5c0,0,0,.1-.1.2v.4q0,0,.1.2l.7.7s.2.1.3.2c0,0,.3,0,.4-.1.7-.5,1.5-.7,2.3-.6.8,0,1.6.5,2.1,1.1s.8,1.4.8,2.2-.4,1.6-1,2.2c-4.5,4.5-10.5-8.1-24.1-1.6-.2.1-.4.3-.6.5-.2.2-.3.4-.4.7,0,.2-.1.5,0,.8,0,.3.1.5.2.7l2.3,4c.2.4.6.7,1.1.9.5.1,1,0,1.4-.2h0l1-.6c1.2-.7,2.2-1.5,3.3-2.4,0,0,.2-.1.4-.1s.3,0,.4.1c0,0,.1.1.1.2v.4s0,.1-.1.2c-1.1,1-2.2,1.8-3.4,2.6h0l-1,.6c-.7.4-1.5.5-2.2.3s-1.4-.7-1.8-1.4l-2.2-3.8c-4.2,3-6.8,8.8-5.4,16,0,.1,0,.2.2.3,0,0,.2.1.3.1h2.5c.1,0,.3,0,.4-.1,0,0,.2-.2.2-.3.1-.9.5-1.7,1.2-2.3s1.5-.9,2.4-.9,1.8.3,2.4.9c.7.6,1.1,1.4,1.2,2.3,0,.1,0,.2.2.3,0,0,.2.1.4.1h2.4c.1,0,.3,0,.4-.1,0,0,.2-.2.2-.3.1-.9.5-1.7,1.2-2.3s1.5-.9,2.4-.9,1.8.3,2.4.9c.7.6,1.1,1.4,1.2,2.3,0,.1,0,.3.2.3s.2.1.4.1h2.4c.1,0,.3,0,.4-.2.1,0,.2-.2.2-.4,0-3.4,1-7.3,3.6-9.3,9-6.8,6.7-12.6,4.6-14.7h0ZM29.8,191.6l-1.7-.9c0-.2,0-.4.1-.5,0-.2.2-.3.4-.4.2,0,.3-.2.5-.2s.4,0,.5.1c.2,0,.3.2.4.4s.2.3.2.5v.5c0,.2-.2.3-.3.4h-.1Z"/>
        </g>
        <g>
          <path class="cls-43" d="M67.6,167.8h25.6c6.2,0,11.2,5,11.2,11.2v25.6c0,6.2-6,11.2-12.2,11.2h-25.6c-6.2,0-10.2-5-10.2-11.2v-25.6c0-6.2,5-11.2,11.2-11.2Z"/>
          <path class="cls-101" d="M67.4,173.9c0,.2,0,.4-.2.6v1.9h0v1.2l2,1c0-1.2,0-2.3,0-3.3v-.2.5h0v3c.4-.3.8-.7,1.3-1.1l.3-.3s0-.1.2-.2l.3-.3.3-.3.3-.3.3-.3c-.3-.7-.7-1.1-1-1.5h0c0-.2,0-.3-.2-.3h0v-.2h0c0-.1,0-.1,0-.1h0c0-.1,0-.1,0-.1h-.6c-.6,0-1.3,0-1.6.7l-1.1-.4Z"/>
          <path class="cls-34" d="M69.4,184.5c0-.7-.2-1.3-.3-2,0-.5,0-1.1-.2-1.6v-.5h0v-1.9l-2-1h0v7.5l2.7,1.4v-.6l-.3-1.3h.1Z"/>
          <path class="cls-77" d="M73.3,200.1h0c0,.1.3,1,.3,1,0,.1,0,.3,0,.4v.4c0,0,.2.1.2.1h0l.4,1.4c.4,0,.8,0,1.3.3h.2c-.4-.3-.9-.6-1.5-.7,1.6-1.1,2.7-2.5,2.6-4.2v-.5c0,.6-.3,1.1-1,1.6h0c.7-1.2.9-2.1.9-3.3s0-.6,0-.9c-.2,1.7-1.2,2.8-2.5,3.5l-.8.7v.2Z"/>
          <path class="cls-73" d="M72.3,198.1l-.2-.6-.3-1.3c-.2-.6-.3-1.3-.5-1.9-.2-.6-.3-1.3-.5-1.9-.2-.7-.3-1.3-.4-2v-.7c0,0-.4-1.3-.4-1.3,0-.2,0-.5,0-.7,0-.4,0-.8-.2-1.2h0l-2.7-1.4h0c0,.7,0,1.3.2,1.9,0,.6,0,1.3.2,1.9,0,.5.2,1.1.3,1.6v.3c.2.7.3,1.3.5,1.9.2.7.3,1.3.5,1.9,0,.4.2.8.3,1.1v.3c0,0,.3.6.3.6.3.7.5,1.4.8,2l2.7,1.4c0-.5-.3-1-.4-1.5v-.3h0q0-.1,0-.1Z"/>
          <path class="cls-94" d="M70.2,198.8c.3.7.7,1.4,1.1,2l.2.4c-.3-.1-.6-.2-.9-.2h-1.1c1.4.5,2.6,1.1,3.3,1.9-.3.3-.9.6-1.6.8h1.4c-.4.4-.7,1-.9,1.7v.2s0,0,0,.1c.6-.9,1.1-1.6,1.7-1.8.6,2,1.3,4.2,2.1,6.5l.4,1.1c0,.4.2.7.4,1.1.2-.2.2-.5,0-.8l-.3-.7-.3-.8-.4-1.3-.4-1.1-.4-1.2-.4-1.2-.4-1.1-.3-.9-.2-.7v-.6l-.3-.8-.2-.8v-.4h0l-2.7-1.4h.3Z"/>
          <path class="cls-52" d="M70,186.5v.3c0,.2,0,.4,0,.5l.3,1.5v.5c0,0,.3.7.3.7v.4c0,.4.2.8.3,1.1l.2.8.2.8v.4l.2.8.2.8c0,.4.2.8.3,1.2,0,.3.2.6.2.9l.3,1,.2.7.2.8c0,.1,0,.3,0,.4h0l.8-.7h0c1-.9,1.8-2.7,2-4.4v-2.4c0-.7-.2-1.3-.4-2.1-.2-.6-.4-1.3-.6-2,0,.3-.4.6-.6.9v.2h-.3c.7-1,.8-2.2.6-3.4,0,.4-.4.9-.8,1.4,0,0,0,.1-.2.2h0c.2-.4.4-.7.5-1.1v-.2h0v-1.4h0v-.2h0c0-.3,0-.6-.2-.9v-.4c0,0,0-.2,0-.2l-.2-.3h0v-.2h0c-.2.4-.6,1-.9,1.4h0c0,.1-2.6,2.4-2.6,2.4h0v-.2Z"/>
          <path class="cls-89" d="M69,178.6v1.8h0v1.3c0,.2,0,.3,0,.5v.8c.2.4.2.7.3,1.1v.3c0,.3,0,.6.2.9l.2,1,2.6-2.3c.5-1,.7-1.6.6-2.3v-.7c0-.7,0-1.4-.2-2,0-.7-.2-1.3-.4-1.8,0-.3-.2-.7-.3-.9,0-.2-.2-.4-.3-.6l-.3.3s0,.1,0,.2l-.3.3-.3.3-.3.3s0,0-.2.1l-.3.3c-.4.4-.8.7-1.1,1h.1Z"/>
          <path class="cls-6" d="M93.7,174.4s-.2,0-.3.1h0c0,.1-.2.2-.3.3h-.2c0,.1-.2.2-.2.2h-.2c0,.1-.2.3-.2.3h0l-.2.2-.2.2-.2.2-.2.2-.2.2-.3.2-.3.2h0c0,.1.8,2.5.8,2.5.9-1,1.8-1.8,2.7-2.6l.3-.3h0l-.2.2-.2.2-.2.2-.2.2-.2.2h0c0,.1-.3.4-.3.4l-.2.2-.3.4-.2.2-.2.2-.3.3-.2.2h4.5c.3-1,.4-1.8.4-2.4v-.2h0v-.3h0v-.2h0v-.2h0v-.4h0v-.2h0v-.2h0c-.4-.6-1-1.2-1.9-.8h-.6Z"/>
          <path class="cls-95" d="M86.8,184.5c.5-.6.9-1.2,1.4-1.8s.9-1.2,1.4-1.7h0c.5-.5.9-1.1,1.4-1.6l-.8-2.4h0l-.2.3c-.4.4-.8.8-1.2,1.2l-.7.7-.5.5-.3.3c-.5.5-1,1-1.4,1.6-.3.4-.6.7-.9,1.1l-.4.4,1.1,3.2.4-.6s.8-1.2.8-1.2Z"/>
          <path class="cls-83" d="M77.6,200.1l-.2.3-.4.8c0,.1,0,.3-.2.4l-.2.4s0,.2,0,.2l-.2.5-.5,1c.4.3.7.9.9,1.5,0-.6,0-1.3-.5-1.8,2.2.4,4.2.1,5.4-1.3,0-.1.2-.3.3-.4-.5.5-1.1.7-2,.5h0c1.6-.5,2.5-1,3.3-2,.2-.2.4-.5.6-.8-1.5,1.2-3.2,1.3-4.8.8h-1.3Z"/>
          <path class="cls-72" d="M78.3,197.9l.5-.8.8-1.3c.4-.6.7-1.3,1.1-1.9.4-.6.8-1.3,1.2-1.9.4-.7.8-1.3,1.2-1.9.4-.6.8-1.3,1.2-1.9.2-.2.3-.4.5-.7.3-.4.5-.8.8-1.1h0l-1.1-3.3h0c-.4.6-.9,1.2-1.3,1.7-.4.6-.9,1.1-1.3,1.7-.4.5-.7,1-1.1,1.5l-.2.3c-.4.6-.8,1.3-1.2,1.8-.4.7-.8,1.3-1.1,1.9l-.6,1.2c-.2.3-.3.6-.5,1-.3.8-.7,1.5-.9,2.3l1.1,3.2.2-.4.4-.8c0-.1,0-.3.2-.4l.2-.3h0Z"/>
          <path class="cls-93" d="M76.2,196.6c-.3.8-.5,1.6-.7,2.5v.5c-.2-.2-.4-.5-.5-.7h0v-.2h0c0-.1,0-.2,0-.2h0c0-.1-.2-.3-.2-.3h0c0-.1-.2-.3-.2-.3h0c.7,1.3,1.2,2.8,1.1,4.1-.5,0-1.2-.2-1.9-.6.3.4.6.7.8.8h0v.2h0c-.6,0-1.3.2-2,.6h-.2c0,.1-.2.2-.2.2,1.2-.3,2.2-.3,2.8,0l-.9,1.8-.5.9c-.7,1.4-1.4,2.9-2.2,4.4l-.5,1c-.2.3-.3.7-.5,1,.3,0,.6-.2.7-.5l.6-1.2.5-1.1.6-1.3.6-1.1.6-1.1.5-1.1.7-1.4.5-1,.2-.3.2-.3v-.3c0,0,.4-.4.4-.4l.4-.8c0-.1.2-.3.2-.4l.2-.4h0l-1.1-3.2h0l.5.2Z"/>
          <path class="cls-91" d="M85.7,186.6l-.2.2c0,.2-.2.3-.3.5l-.6.8-.4.6v.2c-.3.2-.4.5-.6.7l-.5.7c-.3.5-.6,1-.9,1.5l-.2.4c-.4.6-.8,1.3-1.2,1.9l-.5.8c-.2.4-.5.8-.7,1.2s-.3.5-.4.7l-.7,1.2-.2.4-.4.8c0,.3-.3.5-.4.8h1.2c1.5,0,3.6-.8,5.1-2,.7-.5,1.3-1.2,1.9-2,.5-.6.9-1.2,1.3-2,.4-.6.8-1.4,1.1-2.1-.4.1-.8.2-1.2.2h-.4c1.5-.3,2.5-1.2,3.3-2.4-.4.2-1,.4-1.8.5h-.3c.5-.1.9-.3,1.3-.5h.2c0-.1.2-.2.3-.3l.2-.2c.2-.1.3-.3.5-.5h0v-.4h.2c.2-.3.4-.6.6-.9h0c0-.3.2-.4.2-.5h0c0-.1,0-.4,0-.4h0v-.3h0q0-.1,0-.1h0c-.4.2-1.2.3-1.8.4h0l-3.9-.2h0l.3.3Z"/>
          <path class="cls-75" d="M91.2,179.4c0,.2-.3.3-.4.5l-.3.4-.3.4-.4.5h0c-.2.3-.4.5-.7.8l-.4.5s0,.2-.2.2l-.5.7-.3.4c-.2.2-.3.5-.5.7l-.2.2c-.2.2-.4.5-.5.7l-.4.5-.4.5h3.9c1.2-.2,1.8-.6,2.4-1.2,0-.1.2-.3.4-.4h0c.5-.7,1-1.3,1.4-1.9.4-.6.8-1.2,1.1-1.8.2-.4.4-.7.5-1s.2-.5.3-.7h-4.6Z"/>
        </g>
        <g>
          <rect class="cls-26" x="113.7" y="168.2" width="48" height="48" rx="11.2" ry="11.2"/>
          <path class="cls-11" d="M150.3,208.2c-.9,0-1.7-.3-2.3-1l-19.6-19.6v17.3c0,1.8-1.5,3.3-3.3,3.3s-3.3-1.5-3.3-3.3v-25.3c0-1.3.8-2.5,2-3.1,1.2-.5,2.7-.2,3.6.7l19.6,19.6v-17.3c0-1.8,1.5-3.3,3.3-3.3s3.3,1.5,3.3,3.3v25.3c0,1.3-.8,2.5-2,3.1-.4.2-.8.3-1.3.3Z"/>
        </g>
        <g>
          <rect class="cls-43" x="170.9" y="168.2" width="48" height="48" rx="11.2" ry="11.2"/>
          <path class="cls-8" d="M193.4,174.1c.9-.5,2.1-.5,3,0,4.6,2.6,9.3,5.2,13.9,7.9.9.5,1.5,1.5,1.4,2.5v15.8c0,1-.6,2-1.6,2.5-4.6,2.6-9.2,5.2-13.9,7.8-.9.5-2.2.5-3.1,0-1.4-.8-2.8-1.6-4.2-2.4-.3-.2-.6-.3-.8-.6.2-.2.5-.3.7-.4.6-.2,1.1-.5,1.6-.8h.4c1.2.7,2.4,1.4,3.5,2.1.3.1.5,0,.7-.2,4.5-2.6,9.1-5.1,13.6-7.7.2,0,.3-.3.2-.4v-15.6c0-.2-.1-.4-.3-.5-4.6-2.6-9.2-5.2-13.8-7.8-.2-.1-.4-.1-.5,0-4.6,2.6-9.2,5.2-13.8,7.8-.2,0-.3.3-.3.5v15.6c0,.2,0,.4.3.4,1.2.7,2.5,1.4,3.7,2.1.7.4,1.5.6,2.3.3.7-.2,1.1-.9,1.1-1.6v-15.5c0-.2.2-.4.4-.4h1.8c.2,0,.4.2.4.5v15.6c0,1.4-.6,2.9-1.9,3.6-1.6.8-3.5.6-5.1-.1-1.4-.7-2.6-1.5-4-2.2-.9-.5-1.6-1.5-1.6-2.5v-15.8c0-1,.6-2,1.5-2.5,4.6-2.6,9.2-5.2,13.9-7.8l.5-.2Z"/>
          <path class="cls-8" d="M197.4,185c2-.1,4.2,0,6,.9,1.4.8,2.2,2.4,2.2,3.9s-.3.3-.5.3h-1.8c-.2,0-.4-.2-.4-.4-.2-.7-.6-1.5-1.3-1.8-1.1-.5-2.3-.5-3.5-.5s-1.8.1-2.5.6c-.6.4-.7,1.2-.5,1.8.2.4.7.6,1.1.7,2.4.6,5,.6,7.4,1.4,1,.3,2,1,2.3,2,.4,1.4.2,3-.7,4.1-.8.9-2,1.4-3.1,1.7-1.5.3-3.1.4-4.7.2-1.5-.2-3-.6-4.1-1.6-1-.8-1.4-2.2-1.4-3.4s.2-.4.4-.3h1.8c.2,0,.4.2.4.4.1.7.4,1.5,1,1.9,1.2.8,2.7.7,4.1.7s2.4,0,3.3-.8c.5-.4.6-1.1.5-1.8-.1-.5-.7-.8-1.2-.9-2.4-.8-5-.5-7.4-1.3-1-.3-1.9-1-2.3-2-.5-1.4-.3-3.1.8-4.2,1.1-1.1,2.6-1.5,4-1.6h0"/>
        </g>
        <g class="cls-29">
          <g>
            <path class="cls-43" d="M262.9,168.6h-25.5c-6.2,0-11.2,5-11.2,11.2v25.5c0,6.2,5,11.2,11.2,11.2h25.5c6.2,0,11.2-5,11.2-11.2v-25.5c0-6.2-5-11.2-11.2-11.2Z"/>
            <g class="cls-40">
              <g>
                <path class="cls-32" d="M230.4,185.1h39.4v12.9h-19.7v2.1h-8.8v-2.1h-10.9v-12.9ZM232.6,195.8h4.4v-6.4h2.2v6.4h2.2v-8.6h-8.7v8.6h0ZM243.6,187.2v10.7h4.4v-2.1h4.4v-8.6h-8.8,0ZM247.9,189.3h2.2v4.3h-2.2v-4.3ZM254.5,187.2v8.6h4.4v-6.4h2.2v6.4h2.2v-6.4h2.2v6.4h2.2v-8.6h-13.2Z"/>
                <path class="cls-11" d="M232.6,195.8h4.4v-6.4h2.2v6.4h2.2v-8.6h-8.8v8.6h0Z"/>
                <path class="cls-11" d="M243.6,187.2v10.7h4.4v-2.1h4.4v-8.6h-8.8,0ZM250.1,193.6h-2.2v-4.3h2.2v4.3Z"/>
                <path class="cls-11" d="M254.5,187.2v8.6h4.4v-6.4h2.2v6.4h2.2v-6.4h2.2v6.4h2.2v-8.6h-13.2Z"/>
              </g>
            </g>
          </g>
        </g>
        <g>
          <rect class="cls-43" x="282.3" y="168.6" width="48" height="48" rx="11.2" ry="11.2"/>
          <path class="cls-49" d="M324.9,179.4l-17.6,31.5c-.4.6-1.3.7-1.7,0l-17.9-31.5c-.4-.7.2-1.6,1-1.4l17.6,3.1h.3l17.2-3.1c.8-.1,1.4.7,1,1.4h.1Z"/>
          <path class="cls-103" d="M314.7,173.8l-13,2.6c-.2,0-.4.2-.4.4l-.8,13.5c0,.3.3.6.6.5l3.6-.8c.3,0,.6.2.6.6l-1.1,5.3c0,.4.3.7.6.6l2.2-.7c.3-.1.7.2.6.6l-1.7,8.3c-.1.5.6.8.9.4l.2-.3,10.6-21.2c.2-.4-.1-.8-.5-.7l-3.7.7c-.4,0-.6-.3-.6-.6l2.4-8.4c0-.3-.2-.7-.6-.6v-.2Z"/>
        </g>
        <g>
          <rect class="cls-43" x="338.6" y="168.6" width="48" height="48" rx="11.2" ry="11.2"/>
          <path class="cls-63" d="M372.7,177.9h6.8l-16.9,29.1-16.9-29.1h12.9l4,6.8,3.9-6.8h6.2Z"/>
          <path class="cls-63" d="M345.7,177.9l16.9,29.1,16.9-29.1h-6.8l-10.1,17.5-10.2-17.5h-6.7,0Z"/>
          <path class="cls-11" d="M352.4,177.9l10.2,17.6,10.1-17.6h-6.2l-3.9,6.8-4-6.8h-6.2Z"/>
        </g>
        <g>
          <rect class="cls-43" x="394.4" y="168.5" width="48" height="48" rx="11.2" ry="11.2"/>
          <path class="cls-24" d="M433.7,200.7c-4.6,6.1-14.5,4.1-20.8,4.4,0,0-1.1,0-2.2.2,0,0,.4-.2,1-.4,4.4-1.5,6.5-1.8,9.2-3.2,5.1-2.6,10.1-8.3,11.1-14.1-1.9,5.7-7.8,10.5-13.1,12.5-3.7,1.3-10.3,2.7-10.3,2.7h-.3c-4.5-2.3-4.6-12,3.5-15.2,3.6-1.4,7-.6,10.9-1.5,4.1-1,8.9-4.1,10.9-8.1,2.2,6.5,4.8,16.6.1,22.8h0ZM433.8,175.9c-.5,1.3-1.2,2.5-2,3.5-3.4-3.5-8.2-5.7-13.4-5.7-10.3,0-18.7,8.4-18.7,18.7s2.3,10.3,6,13.7l.4.4c-.7-.6-.8-1.6-.2-2.2.6-.7,1.6-.8,2.3-.2.7.6.8,1.6.2,2.3-.6.7-1.6.8-2.2.2l.3.2c3.3,2.7,7.5,4.4,12,4.4,9.9,0,18-7.7,18.7-17.4.5-4.7-.9-10.8-3.3-17.9h0Z"/>
        </g>
        <g>
          <rect class="cls-43" x="451.2" y="168.3" width="48" height="48" rx="11.2" ry="11.2"/>
          <path class="cls-35" d="M469,174.7l-12.1,11.7,12.1,11.7v-11.7h12.1l-12.1-11.7Z"/>
          <path class="cls-66" d="M493.2,198.1l-12.1-11.7v11.7h-12.1l12.1,11.7,12.1-11.7Z"/>
          <path class="cls-86" d="M481.1,186.4h-12.1v11.7h12.1v-11.7Z"/>
        </g>
      </g>
    </g>
  </g>
</svg>